#N canvas 403 234 522 383 10;
#X obj 119 33 inlet;
#X text 63 12 timer bang in;
#X obj 29 334 bng 15 250 50 0 empty empty empty 17 7 0 10 -262144 -1
-1;
#X obj 75 122 f;
#X obj 105 122 + 1;
#X obj 75 210 sel 0;
#X obj 351 30 loadbang;
#X msg 351 52 0;
#X obj 54 334 bng 15 250 50 0 empty empty empty 17 7 0 10 -262144 -1
-1;
#X obj 75 158 % 2;
#X obj 135 122 f;
#X obj 165 122 + 1;
#X obj 135 210 sel 0;
#X obj 79 334 bng 15 250 50 0 empty empty empty 17 7 0 10 -262144 -1
-1;
#X obj 195 122 f;
#X obj 225 122 + 1;
#X obj 195 210 sel 0;
#X obj 104 334 bng 15 250 50 0 empty empty empty 17 7 0 10 -262144
-1 -1;
#X obj 135 158 % 3;
#X obj 195 158 % 4;
#X obj 255 122 f;
#X obj 285 122 + 1;
#X obj 255 210 sel 0;
#X obj 129 334 bng 15 250 50 0 empty empty empty 17 7 0 10 -262144
-1 -1;
#X obj 315 122 f;
#X obj 345 122 + 1;
#X obj 315 210 sel 0;
#X obj 154 334 bng 15 250 50 0 empty empty empty 17 7 0 10 -262144
-1 -1;
#X obj 375 122 f;
#X obj 405 122 + 1;
#X obj 375 210 sel 0;
#X obj 179 334 bng 15 250 50 0 empty empty empty 17 7 0 10 -262144
-1 -1;
#X obj 255 158 % 5;
#X obj 315 158 % 6;
#X obj 375 158 % 7;
#X obj 435 122 f;
#X obj 465 122 + 1;
#X obj 435 210 sel 0;
#X obj 204 334 bng 15 250 50 0 empty empty empty 17 7 0 10 -262144
-1 -1;
#X obj 435 158 % 8;
#X obj 351 74 t f f f f f f f;
#X floatatom 75 180 5 0 0 0 - - -, f 5;
#X floatatom 135 180 5 0 0 0 - - -, f 5;
#X floatatom 195 180 5 0 0 0 - - -, f 5;
#X floatatom 255 180 5 0 0 0 - - -, f 5;
#X floatatom 315 180 5 0 0 0 - - -, f 5;
#X floatatom 375 180 5 0 0 0 - - -, f 5;
#X floatatom 435 180 5 0 0 0 - - -, f 5;
#X obj 75 232 t b b;
#X obj 119 57 bng 15 250 50 0 empty empty empty 17 7 0 10 -262144 -1
-1;
#X text 51 316 /2;
#X text 76 316 /3;
#X text 101 316 /4;
#X text 126 316 /5;
#X text 151 316 /6;
#X text 176 316 /7;
#X text 201 316 /8;
#X obj 75 254 outlet;
#X obj 135 232 t b b;
#X obj 195 232 t b b;
#X obj 255 232 t b b;
#X obj 315 232 t b b;
#X obj 375 232 t b b;
#X obj 435 232 t b b;
#X obj 135 254 outlet;
#X obj 195 254 outlet;
#X obj 255 254 outlet;
#X obj 315 254 outlet;
#X obj 375 254 outlet;
#X obj 435 254 outlet;
#X text 26 316 in;
#X obj 14 254 outlet;
#X connect 0 0 49 0;
#X connect 3 0 4 0;
#X connect 3 0 9 0;
#X connect 4 0 3 1;
#X connect 5 0 48 0;
#X connect 6 0 7 0;
#X connect 7 0 40 0;
#X connect 9 0 41 0;
#X connect 10 0 11 0;
#X connect 10 0 18 0;
#X connect 11 0 10 1;
#X connect 12 0 58 0;
#X connect 14 0 15 0;
#X connect 14 0 19 0;
#X connect 15 0 14 1;
#X connect 16 0 59 0;
#X connect 18 0 42 0;
#X connect 19 0 43 0;
#X connect 20 0 21 0;
#X connect 20 0 32 0;
#X connect 21 0 20 1;
#X connect 22 0 60 0;
#X connect 24 0 25 0;
#X connect 24 0 33 0;
#X connect 25 0 24 1;
#X connect 26 0 61 0;
#X connect 28 0 29 0;
#X connect 28 0 34 0;
#X connect 29 0 28 1;
#X connect 30 0 62 0;
#X connect 32 0 44 0;
#X connect 33 0 45 0;
#X connect 34 0 46 0;
#X connect 35 0 36 0;
#X connect 35 0 39 0;
#X connect 36 0 35 1;
#X connect 37 0 63 0;
#X connect 39 0 47 0;
#X connect 40 0 3 1;
#X connect 40 1 10 1;
#X connect 40 2 14 1;
#X connect 40 3 20 1;
#X connect 40 4 24 1;
#X connect 40 5 28 1;
#X connect 40 6 35 1;
#X connect 41 0 5 0;
#X connect 42 0 12 0;
#X connect 43 0 16 0;
#X connect 44 0 22 0;
#X connect 45 0 26 0;
#X connect 46 0 30 0;
#X connect 47 0 37 0;
#X connect 48 0 57 0;
#X connect 48 1 8 0;
#X connect 49 0 3 0;
#X connect 49 0 10 0;
#X connect 49 0 14 0;
#X connect 49 0 20 0;
#X connect 49 0 21 0;
#X connect 49 0 24 0;
#X connect 49 0 28 0;
#X connect 49 0 35 0;
#X connect 49 0 2 0;
#X connect 49 0 71 0;
#X connect 58 0 64 0;
#X connect 58 1 13 0;
#X connect 59 0 65 0;
#X connect 59 1 17 0;
#X connect 60 0 66 0;
#X connect 60 1 23 0;
#X connect 61 0 67 0;
#X connect 61 1 27 0;
#X connect 62 0 68 0;
#X connect 62 1 31 0;
#X connect 63 0 69 0;
#X connect 63 1 38 0;
#X coords 0 -1 1 1 196 36 2 26 315;
