#N canvas 1069 330 494 505 10;
#X obj 106 213 hsl 128 15 0 1 0 1 empty empty wet 0 8 0 10 -203904
-1 -1 10300 1;
#X msg 56 358 wet \$1;
#X msg 67 380 dry \$1;
#X obj 106 156 hsl 128 15 0 1 0 1 empty empty roomsize 0 8 0 10 -203904
-1 -1 9700 1;
#X msg 14 291 roomsize \$1;
#X obj 14 463 outlet;
#X obj 106 232 hsl 128 15 0 1 0 1 empty empty dry 0 8 0 10 -203904
-1 -1 7700 1;
#X obj 106 175 hsl 128 15 0 1 0 1 empty empty damping 0 8 0 10 -203904
-1 -1 5450 1;
#X obj 106 194 hsl 128 15 0 1 0 1 empty empty width 0 8 0 10 -203904
-1 -1 7100 1;
#X msg 26 314 damping \$1;
#X msg 42 336 width \$1;
#X obj 37 26 inlet;
#X msg 310 103 0.85;
#X text 399 73 Defaults;
#X msg 347 103 0.5;
#X msg 380 104 1;
#X msg 411 104 0.3;
#X msg 443 104 0;
#X obj 103 250 tgl 15 1 empty empty bypass 17 7 0 10 -203904 -1 -1
0 1;
#X obj 163 250 tgl 15 1 empty empty freeze 17 7 0 10 -203904 -1 -1
0 1;
#X msg 78 401 bypass \$1;
#X msg 89 422 freeze \$1;
#X obj 381 74 bng 15 250 50 0 empty empty empty 17 7 0 10 -262144 -1
-1;
#X obj 7 195 loadbang;
#X floatatom 103 280 5 0 0 0 - - -, f 5;
#X floatatom 163 280 5 0 0 0 - - -, f 5;
#X obj 37 51 route roomsize damping width wet dry bypass freeze defaults
;
#X floatatom 239 157 7 0 0 0 - - -, f 7;
#X floatatom 239 176 7 0 0 0 - - -, f 7;
#X floatatom 239 195 7 0 0 0 - - -, f 7;
#X floatatom 239 214 7 0 0 0 - - -, f 7;
#X floatatom 239 233 7 0 0 0 - - -, f 7;
#X connect 0 0 1 0;
#X connect 0 0 30 0;
#X connect 1 0 5 0;
#X connect 2 0 5 0;
#X connect 3 0 4 0;
#X connect 3 0 27 0;
#X connect 4 0 5 0;
#X connect 6 0 2 0;
#X connect 6 0 31 0;
#X connect 7 0 9 0;
#X connect 7 0 28 0;
#X connect 8 0 10 0;
#X connect 8 0 29 0;
#X connect 9 0 5 0;
#X connect 10 0 5 0;
#X connect 11 0 26 0;
#X connect 12 0 3 0;
#X connect 14 0 7 0;
#X connect 15 0 8 0;
#X connect 16 0 0 0;
#X connect 17 0 6 0;
#X connect 17 0 18 0;
#X connect 17 0 19 0;
#X connect 18 0 24 0;
#X connect 19 0 25 0;
#X connect 20 0 5 0;
#X connect 21 0 5 0;
#X connect 22 0 12 0;
#X connect 22 0 14 0;
#X connect 22 0 15 0;
#X connect 22 0 16 0;
#X connect 22 0 17 0;
#X connect 23 0 3 0;
#X connect 23 0 7 0;
#X connect 23 0 8 0;
#X connect 23 0 0 0;
#X connect 23 0 6 0;
#X connect 23 0 24 0;
#X connect 23 0 25 0;
#X connect 24 0 20 0;
#X connect 25 0 21 0;
#X connect 26 0 3 0;
#X connect 26 1 7 0;
#X connect 26 2 8 0;
#X connect 26 3 0 0;
#X connect 26 4 6 0;
#X connect 26 5 18 0;
#X connect 26 6 19 0;
#X coords 0 -1 1 1 194 118 2 100 150;
