#N canvas 572 256 451 562 10;
#X obj 82 170 *~;
#X obj 205 315 *~ 0.95;
#X floatatom 344 189 5 0 0 0 - - -, f 5;
#X floatatom 344 209 5 0 0 0 - - -, f 5;
#X floatatom 23 195 5 0 0 0 - - -, f 5;
#X obj 23 214 mtof;
#X floatatom 23 236 5 0 0 0 - - -, f 5;
#X obj 23 255 t b f;
#X obj 23 300 /;
#X msg 23 277 1000;
#X obj 23 323 pack 0 20;
#X obj 23 345 line~;
#X obj 23 398 outlet~;
#X obj 209 188 hsl 128 15 0 1 0 0 empty empty feedback 4 8 0 10 -262144
-1 -1 12687 1;
#X obj 209 208 hsl 128 15 0 12000 0 0 empty empty lpf_center_freq 4
8 0 10 -262144 -1 -1 8467 1;
#X obj 101 47 inlet~;
#X text 100 20 envelope;
#X text 164 20 midi note;
#X text 6 20 sound source;
#X obj 199 404 block~ 1;
#X text 18 430 Block size needs to be 1 sample for this subpatch to
ensure correct tuning and operation for delay line feedback;
#X obj 204 354 delwrite~ \$0-karplus 1000;
#X obj 24 370 delread4~ \$0-karplus;
#X obj 206 161 r feedback;
#X obj 167 47 inlet;
#X obj 33 111 vcf~ 1;
#X floatatom 344 109 5 0 0 0 - - -, f 5;
#X floatatom 344 129 5 0 0 0 - - -, f 5;
#X obj 209 108 hsl 128 15 0 20000 0 0 empty empty bandpass_center_freq
4 8 0 10 -262144 -1 -1 8890 1;
#X obj 209 128 hsl 128 15 0 10 0 0 empty empty bandpass_q 4 8 0 10
-262144 -1 -1 7620 1;
#X obj 269 80 r bpfq;
#X obj 290 161 r lpfCF;
#X obj 206 80 r bpfCF;
#X obj 205 271 lop~;
#X obj 353 161 r hpfCF;
#X obj 34 47 noise~;
#X connect 0 0 21 0;
#X connect 1 0 21 0;
#X connect 2 0 1 1;
#X connect 3 0 33 1;
#X connect 4 0 5 0;
#X connect 5 0 6 0;
#X connect 6 0 7 0;
#X connect 7 0 9 0;
#X connect 7 1 8 1;
#X connect 8 0 10 0;
#X connect 9 0 8 0;
#X connect 10 0 11 0;
#X connect 11 0 22 0;
#X connect 13 0 2 0;
#X connect 14 0 3 0;
#X connect 15 0 0 1;
#X connect 22 0 12 0;
#X connect 22 0 33 0;
#X connect 23 0 13 0;
#X connect 24 0 4 0;
#X connect 25 0 0 0;
#X connect 28 0 26 0;
#X connect 28 0 25 1;
#X connect 29 0 27 0;
#X connect 29 0 25 2;
#X connect 30 0 29 0;
#X connect 31 0 14 0;
#X connect 32 0 28 0;
#X connect 33 0 1 0;
#X connect 35 0 25 0;
#X coords 0 562 1 561 187 173 0;
