#N canvas 760 223 471 355 10;
#X obj 42 73 hsl 128 15 0 127 0 1 empty empty probability 4 8 0 10
-262144 -1 -1 7700 1;
#X obj 162 66 cnv 5 5 5 empty empty CV 0 0 0 8 -262144 -1 0;
#X obj 252 195 moses;
#X obj 252 242 t b b;
#X obj 196 242 t b b;
#X obj 157 93 bng 15 100 50 0 empty empty empty 17 7 0 10 -262144 -226533
-1;
#X obj 39 93 bng 15 100 50 0 empty empty empty 17 7 0 10 -262144 -226533
-1;
#X obj 349 73 inlet~;
#X obj 349 104 snapshot~;
#X obj 349 155 t b f;
#X obj 284 172 +;
#X obj 410 72 bang~;
#X obj 349 126 * 127;
#X obj 252 51 inlet;
#X obj 252 309 outlet;
#X obj 196 309 outlet;
#X obj 252 73 random 127;
#X floatatom 284 150 5 0 0 0 - - -, f 5;
#X text 12 10 code adapted from automatonism;
#X obj 39 184 inlet;
#X text 13 204 preset value input 0-127;
#X text 238 32 bang in;
#X text 321 54 cv control;
#X obj 40 66 cnv 5 5 5 empty empty PRESET 0 0 0 8 -262144 -1 0;
#X obj 97 66 cnv 5 5 5 empty empty BANG 0 0 0 8 -262144 -1 0;
#X connect 0 0 17 0;
#X connect 2 0 3 0;
#X connect 2 1 4 0;
#X connect 3 0 14 0;
#X connect 3 1 5 0;
#X connect 4 0 15 0;
#X connect 4 1 6 0;
#X connect 7 0 8 0;
#X connect 8 0 12 0;
#X connect 9 0 10 0;
#X connect 9 1 10 1;
#X connect 10 0 2 1;
#X connect 11 0 8 0;
#X connect 12 0 9 0;
#X connect 13 0 16 0;
#X connect 16 0 2 0;
#X connect 17 0 10 0;
#X connect 19 0 0 0;
#X coords 0 -1 1 1 139 53 2 36 58;
