#N canvas 654 120 657 416 10;
#X obj 31 253 *~;
#X obj 131 252 *~;
#X obj 147 165 abs~;
#X floatatom 281 19 7 0 0 0 - - -, f 7;
#X obj 148 135 -~ 1;
#X obj 147 110 *~ 2;
#X obj 147 198 *~ -1;
#X obj 148 225 +~ 1;
#X obj 146 85 phasor~;
#X obj 32 45 inlet~;
#X obj 31 275 outlet~;
#X obj 131 274 outlet~;
#X obj 148 18 hsl 128 15 -3 3 0 0 empty empty stereo_speed 4 8 0 10
-262144 -1 -1 6350 1;
#X obj 363 25 inlet~;
#X obj 363 56 snapshot~;
#X obj 363 167 t b f;
#X obj 283 184 +;
#X obj 419 25 bang~;
#X floatatom 281 59 7 0 0 0 - - -, f 7;
#X obj 148 58 hsl 128 15 -10 10 0 0 empty empty empty -2 -8 0 10 -262144
-1 -1 5989 1;
#X floatatom 363 78 5 0 0 0 - - -, f 5;
#X obj 363 127 * 2;
#X floatatom 363 149 5 0 0 0 - - -, f 5;
#X obj 148 38 hsl 128 15 0 5 0 0 empty empty cv_multiplier 4 8 0 10
-262144 -1 -1 2540 1;
#X floatatom 281 39 7 0 0 0 - - -, f 7;
#X obj 474 25 loadbang;
#X msg 474 67 0;
#X msg 494 47 1;
#X text 41 23 L in & R in;
#X text 365 6 cv in;
#X connect 0 0 10 0;
#X connect 1 0 11 0;
#X connect 2 0 0 1;
#X connect 2 0 6 0;
#X connect 3 0 16 0;
#X connect 4 0 2 0;
#X connect 5 0 4 0;
#X connect 6 0 7 0;
#X connect 7 0 1 1;
#X connect 8 0 5 0;
#X connect 9 0 0 0;
#X connect 9 0 1 0;
#X connect 12 0 3 0;
#X connect 13 0 14 0;
#X connect 14 0 20 0;
#X connect 15 0 16 0;
#X connect 15 1 16 1;
#X connect 16 0 8 0;
#X connect 16 0 18 0;
#X connect 17 0 14 0;
#X connect 18 0 19 0;
#X connect 20 0 21 0;
#X connect 21 0 22 0;
#X connect 22 0 15 0;
#X connect 23 0 21 1;
#X connect 23 0 24 0;
#X connect 25 0 26 0;
#X connect 25 0 27 0;
#X connect 26 0 12 0;
#X connect 27 0 23 0;
#X coords 0 -1 1 1 194 63 2 142 14;
