#N canvas 400 292 528 294 10;
#X floatatom 149 88 5 0 0 0 - - -, f 5;
#X obj 149 106 \$1 20;
#X obj 149 127 line~;
#X obj 22 234 outlet~;
#X obj 148 156 *~;
#X text 176 156 exponential curve is better for amplitude;
#X obj 41 42 hsl 128 15 0 1 0 0 empty empty master_volume 4 8 0 10
-261234 -1 -1 10200 1;
#X floatatom 174 43 7 0 0 0 - - -, f 7;
#X obj 22 208 lop~;
#X obj 306 83 loadbang;
#X floatatom 174 24 7 0 0 0 lowpass_freq - -, f 7;
#X obj 22 184 *~;
#X msg 306 105 20000;
#X obj 38 23 tgl 15 0 empty empty empty 17 7 0 10 -261234 -1 -1 1 1
;
#X msg 177 210 dsp \$1;
#X obj 177 233 s pd;
#X obj 82 234 outlet~;
#X obj 82 208 lop~;
#X obj 82 184 *~;
#X obj 23 88 catch~ L;
#X obj 83 107 catch~ R;
#X obj 23 110 *~ 0.9;
#X obj 83 130 *~ 0.9;
#X connect 0 0 1 0;
#X connect 1 0 2 0;
#X connect 2 0 4 0;
#X connect 2 0 4 1;
#X connect 4 0 11 1;
#X connect 4 0 18 1;
#X connect 6 0 7 0;
#X connect 6 0 0 0;
#X connect 8 0 3 0;
#X connect 9 0 12 0;
#X connect 10 0 8 1;
#X connect 10 0 17 1;
#X connect 11 0 8 0;
#X connect 12 0 10 0;
#X connect 13 0 14 0;
#X connect 14 0 15 0;
#X connect 17 0 16 0;
#X connect 18 0 17 0;
#X connect 19 0 21 0;
#X connect 20 0 22 0;
#X connect 21 0 11 0;
#X connect 22 0 18 0;
#X coords 0 -1 1 1 194 42 2 34 19;
