#N canvas 197 50 1374 980 10;
#X obj 249 676 dac~;
#X obj 249 238 aVolMasterStereo;
#X obj 249 219 aBPM;
#N canvas 155 218 611 243 sho-chords 0;
#X obj 230 17 inlet;
#X obj 20 58 sel 1;
#X obj 62 58 sel 2;
#X obj 104 58 sel 3;
#X obj 146 58 sel 4;
#X obj 188 58 sel 5;
#X obj 230 58 sel 6;
#X obj 272 58 sel 7;
#X obj 314 58 sel 8;
#X obj 356 58 sel 9;
#X obj 398 58 sel 10;
#X obj 447 58 sel 11;
#N canvas 186 104 450 365 Juu1 0;
#X obj 19 32 inlet;
#X text 73 32 Acorde Juu (i) — G A B D E;
#X obj 19 59 bng 15 250 50 0 empty empty empty 17 7 0 10 -262144 -1
-1;
#X obj 19 314 outlet;
#X obj 187 164 t f b;
#X obj 72 314 bng 15 250 50 0 empty empty empty 17 7 0 10 -262144 -1
-1;
#X obj 145 164 t f b;
#X obj 103 164 t f b;
#X obj 61 164 t f b;
#X obj 19 278 pack f f f f f f;
#X obj 229 164 t f b;
#X obj 19 201 mtof;
#X obj 61 201 mtof;
#X obj 103 201 mtof;
#X obj 145 201 mtof;
#X obj 187 201 mtof;
#X msg 19 108 79;
#X msg 60 108 81;
#X msg 102 108 83;
#X msg 144 108 86;
#X msg 186 108 88;
#X msg 228 108 0;
#X connect 0 0 2 0;
#X connect 2 0 16 0;
#X connect 2 0 17 0;
#X connect 2 0 18 0;
#X connect 2 0 19 0;
#X connect 2 0 20 0;
#X connect 2 0 21 0;
#X connect 4 0 15 0;
#X connect 4 1 9 0;
#X connect 6 0 14 0;
#X connect 6 1 9 0;
#X connect 7 0 13 0;
#X connect 7 1 9 0;
#X connect 8 0 12 0;
#X connect 8 1 9 0;
#X connect 9 0 3 0;
#X connect 9 0 5 0;
#X connect 10 0 9 5;
#X connect 10 1 9 0;
#X connect 11 0 9 0;
#X connect 12 0 9 1;
#X connect 13 0 9 2;
#X connect 14 0 9 3;
#X connect 15 0 9 4;
#X connect 16 0 11 0;
#X connect 17 0 8 0;
#X connect 18 0 7 0;
#X connect 19 0 6 0;
#X connect 20 0 4 0;
#X connect 21 0 10 0;
#X restore 20 104 pd Juu1;
#N canvas 441 298 450 359 Juu2 0;
#X obj 19 32 inlet;
#X msg 60 108 79;
#X msg 102 108 81;
#X msg 144 108 83;
#X msg 186 108 86;
#X msg 228 108 88;
#X obj 19 69 bng 15 250 50 0 empty empty empty 17 7 0 10 -262144 -1
-1;
#X obj 19 274 outlet;
#X obj 228 134 t f b;
#X obj 72 274 bng 15 250 50 0 empty empty empty 17 7 0 10 -262144 -1
-1;
#X obj 186 134 t f b;
#X obj 144 134 t f b;
#X obj 102 134 t f b;
#X text 73 32 Acorde Juu (ii) — F# G A B D E;
#X obj 60 134 t f b;
#X obj 19 238 pack f f f f f f;
#X msg 19 108 78;
#X obj 19 171 mtof;
#X obj 60 171 mtof;
#X obj 102 171 mtof;
#X obj 144 171 mtof;
#X obj 186 171 mtof;
#X obj 228 171 mtof;
#X connect 0 0 6 0;
#X connect 1 0 14 0;
#X connect 2 0 12 0;
#X connect 3 0 11 0;
#X connect 4 0 10 0;
#X connect 5 0 8 0;
#X connect 6 0 1 0;
#X connect 6 0 2 0;
#X connect 6 0 3 0;
#X connect 6 0 4 0;
#X connect 6 0 5 0;
#X connect 6 0 16 0;
#X connect 8 0 22 0;
#X connect 8 1 15 0;
#X connect 10 0 21 0;
#X connect 10 1 15 0;
#X connect 11 0 20 0;
#X connect 11 1 15 0;
#X connect 12 0 19 0;
#X connect 12 1 15 0;
#X connect 14 0 18 0;
#X connect 14 1 15 0;
#X connect 15 0 7 0;
#X connect 15 0 9 0;
#X connect 16 0 17 0;
#X connect 17 0 15 0;
#X connect 18 0 15 1;
#X connect 19 0 15 2;
#X connect 20 0 15 3;
#X connect 21 0 15 4;
#X connect 22 0 15 5;
#X restore 62 134 pd Juu2;
#N canvas 767 345 450 352 Ge 0;
#X obj 19 32 inlet;
#X msg 102 108 81;
#X msg 144 108 83;
#X msg 186 108 86;
#X obj 19 69 bng 15 250 50 0 empty empty empty 17 7 0 10 -262144 -1
-1;
#X obj 19 284 outlet;
#X obj 228 134 t f b;
#X obj 72 284 bng 15 250 50 0 empty empty empty 17 7 0 10 -262144 -1
-1;
#X obj 186 134 t f b;
#X obj 144 134 t f b;
#X obj 102 134 t f b;
#X obj 60 134 t f b;
#X obj 19 248 pack f f f f f f;
#X msg 19 108 78;
#X text 73 32 Acorde Ge — F# G# A B D F#;
#X msg 60 108 80;
#X msg 228 108 90;
#X obj 19 171 mtof;
#X obj 60 171 mtof;
#X obj 102 171 mtof;
#X obj 144 171 mtof;
#X obj 186 171 mtof;
#X obj 228 171 mtof;
#X connect 0 0 4 0;
#X connect 1 0 10 0;
#X connect 2 0 9 0;
#X connect 3 0 8 0;
#X connect 4 0 15 0;
#X connect 4 0 1 0;
#X connect 4 0 2 0;
#X connect 4 0 3 0;
#X connect 4 0 16 0;
#X connect 4 0 13 0;
#X connect 6 0 22 0;
#X connect 6 1 12 0;
#X connect 8 0 21 0;
#X connect 8 1 12 0;
#X connect 9 0 20 0;
#X connect 9 1 12 0;
#X connect 10 0 19 0;
#X connect 10 1 12 0;
#X connect 11 0 18 0;
#X connect 11 1 12 0;
#X connect 12 0 5 0;
#X connect 12 0 7 0;
#X connect 13 0 17 0;
#X connect 15 0 11 0;
#X connect 16 0 6 0;
#X connect 17 0 12 0;
#X connect 18 0 12 1;
#X connect 19 0 12 2;
#X connect 20 0 12 3;
#X connect 21 0 12 4;
#X connect 22 0 12 5;
#X restore 104 104 pd Ge;
#N canvas 578 305 450 354 Otsu 0;
#X obj 19 32 inlet;
#X obj 19 69 bng 15 250 50 0 empty empty empty 17 7 0 10 -262144 -1
-1;
#X obj 19 274 outlet;
#X obj 228 134 t f b;
#X obj 72 274 bng 15 250 50 0 empty empty empty 17 7 0 10 -262144 -1
-1;
#X obj 186 134 t f b;
#X obj 144 134 t f b;
#X obj 102 134 t f b;
#X obj 60 134 t f b;
#X obj 19 238 pack f f f f f f;
#X msg 228 108 90;
#X text 73 32 Acorde Otsu — E A B D E F#;
#X msg 19 108 76;
#X msg 60 108 81;
#X msg 102 108 83;
#X msg 144 108 86;
#X msg 186 108 88;
#X obj 19 171 mtof;
#X obj 60 171 mtof;
#X obj 102 171 mtof;
#X obj 144 171 mtof;
#X obj 186 171 mtof;
#X obj 228 171 mtof;
#X connect 0 0 1 0;
#X connect 1 0 13 0;
#X connect 1 0 14 0;
#X connect 1 0 15 0;
#X connect 1 0 16 0;
#X connect 1 0 10 0;
#X connect 1 0 12 0;
#X connect 3 0 22 0;
#X connect 3 1 9 0;
#X connect 5 0 21 0;
#X connect 5 1 9 0;
#X connect 6 0 20 0;
#X connect 6 1 9 0;
#X connect 7 0 19 0;
#X connect 7 1 9 0;
#X connect 8 0 18 0;
#X connect 8 1 9 0;
#X connect 9 0 2 0;
#X connect 9 0 4 0;
#X connect 10 0 3 0;
#X connect 12 0 17 0;
#X connect 13 0 8 0;
#X connect 14 0 7 0;
#X connect 15 0 6 0;
#X connect 16 0 5 0;
#X connect 17 0 9 0;
#X connect 18 0 9 1;
#X connect 19 0 9 2;
#X connect 20 0 9 3;
#X connect 21 0 9 4;
#X connect 22 0 9 5;
#X restore 146 134 pd Otsu;
#N canvas 1281 402 450 328 Kuu 0;
#X obj 19 32 inlet;
#X obj 19 69 bng 15 250 50 0 empty empty empty 17 7 0 10 -262144 -1
-1;
#X obj 19 274 outlet;
#X obj 228 134 t f b;
#X obj 72 274 bng 15 250 50 0 empty empty empty 17 7 0 10 -262144 -1
-1;
#X obj 186 134 t f b;
#X obj 144 134 t f b;
#X obj 102 134 t f b;
#X obj 60 134 t f b;
#X obj 19 238 pack f f f f f f;
#X msg 19 108 73;
#X msg 60 108 74;
#X msg 102 108 76;
#X msg 144 108 80;
#X msg 186 108 81;
#X msg 228 108 83;
#X text 73 32 Acorde Kuu — C# D E G# A B;
#X obj 19 171 mtof;
#X obj 60 171 mtof;
#X obj 102 171 mtof;
#X obj 144 171 mtof;
#X obj 186 171 mtof;
#X obj 228 171 mtof;
#X connect 0 0 1 0;
#X connect 1 0 11 0;
#X connect 1 0 12 0;
#X connect 1 0 13 0;
#X connect 1 0 14 0;
#X connect 1 0 15 0;
#X connect 1 0 10 0;
#X connect 3 0 22 0;
#X connect 3 1 9 0;
#X connect 5 0 21 0;
#X connect 5 1 9 0;
#X connect 6 0 20 0;
#X connect 6 1 9 0;
#X connect 7 0 19 0;
#X connect 7 1 9 0;
#X connect 8 0 18 0;
#X connect 8 1 9 0;
#X connect 9 0 2 0;
#X connect 9 0 4 0;
#X connect 10 0 17 0;
#X connect 11 0 8 0;
#X connect 12 0 7 0;
#X connect 13 0 6 0;
#X connect 14 0 5 0;
#X connect 15 0 3 0;
#X connect 17 0 9 0;
#X connect 18 0 9 1;
#X connect 19 0 9 2;
#X connect 20 0 9 3;
#X connect 21 0 9 4;
#X connect 22 0 9 5;
#X restore 188 104 pd Kuu;
#X obj 230 213 outlet;
#X obj 26 81 bng 15 250 50 0 empty empty empty 17 7 0 10 -262144 -1
-1;
#X obj 68 81 bng 15 250 50 0 empty empty empty 17 7 0 10 -262144 -1
-1;
#X obj 110 81 bng 15 250 50 0 empty empty empty 17 7 0 10 -262144 -1
-1;
#X obj 152 81 bng 15 250 50 0 empty empty empty 17 7 0 10 -262144 -1
-1;
#X obj 194 81 bng 15 250 50 0 empty empty empty 17 7 0 10 -262144 -1
-1;
#X obj 236 81 bng 15 250 50 0 empty empty empty 17 7 0 10 -262144 -1
-1;
#X obj 278 81 bng 15 250 50 0 empty empty empty 17 7 0 10 -262144 -1
-1;
#X obj 320 81 bng 15 250 50 0 empty empty empty 17 7 0 10 -262144 -1
-1;
#X obj 362 81 bng 15 250 50 0 empty empty empty 17 7 0 10 -262144 -1
-1;
#X obj 404 81 bng 15 250 50 0 empty empty empty 17 7 0 10 -262144 -1
-1;
#X obj 453 81 bng 15 250 50 0 empty empty empty 17 7 0 10 -262144 -1
-1;
#N canvas 614 342 450 328 Bi 0;
#X obj 19 32 inlet;
#X obj 19 69 bng 15 250 50 0 empty empty empty 17 7 0 10 -262144 -1
-1;
#X obj 19 274 outlet;
#X obj 228 134 t f b;
#X obj 72 274 bng 15 250 50 0 empty empty empty 17 7 0 10 -262144 -1
-1;
#X obj 186 134 t f b;
#X obj 144 134 t f b;
#X obj 102 134 t f b;
#X obj 60 134 t f b;
#X obj 19 238 pack f f f f f f;
#X obj 19 171 mtof;
#X obj 60 171 mtof;
#X obj 102 171 mtof;
#X obj 144 171 mtof;
#X obj 186 171 mtof;
#X obj 228 171 mtof;
#X text 73 32 Acorde Bi — G# A B C E F#;
#X msg 228 108 90;
#X msg 186 108 88;
#X msg 144 108 84;
#X msg 102 108 83;
#X msg 60 108 81;
#X msg 19 108 80;
#X connect 0 0 1 0;
#X connect 1 0 21 0;
#X connect 1 0 20 0;
#X connect 1 0 19 0;
#X connect 1 0 18 0;
#X connect 1 0 17 0;
#X connect 1 0 22 0;
#X connect 3 0 15 0;
#X connect 3 1 9 0;
#X connect 5 0 14 0;
#X connect 5 1 9 0;
#X connect 6 0 13 0;
#X connect 6 1 9 0;
#X connect 7 0 12 0;
#X connect 7 1 9 0;
#X connect 8 0 11 0;
#X connect 8 1 9 0;
#X connect 9 0 2 0;
#X connect 9 0 4 0;
#X connect 10 0 9 0;
#X connect 11 0 9 1;
#X connect 12 0 9 2;
#X connect 13 0 9 3;
#X connect 14 0 9 4;
#X connect 15 0 9 5;
#X connect 17 0 3 0;
#X connect 18 0 5 0;
#X connect 19 0 6 0;
#X connect 20 0 7 0;
#X connect 21 0 8 0;
#X connect 22 0 10 0;
#X restore 230 134 pd Bi;
#N canvas 415 220 450 328 Ichi 0;
#X obj 19 32 inlet;
#X obj 19 69 bng 15 250 50 0 empty empty empty 17 7 0 10 -262144 -1
-1;
#X obj 19 274 outlet;
#X obj 228 134 t f b;
#X obj 72 274 bng 15 250 50 0 empty empty empty 17 7 0 10 -262144 -1
-1;
#X obj 186 134 t f b;
#X obj 144 134 t f b;
#X obj 102 134 t f b;
#X obj 60 134 t f b;
#X obj 19 238 pack f f f f f f;
#X obj 19 171 mtof;
#X obj 60 171 mtof;
#X obj 102 171 mtof;
#X obj 144 171 mtof;
#X obj 186 171 mtof;
#X obj 228 171 mtof;
#X msg 228 108 90;
#X text 73 32 Acorde Ichi — B D E A B F#;
#X msg 19 108 71;
#X msg 60 108 74;
#X msg 102 108 76;
#X msg 144 108 81;
#X msg 186 108 83;
#X connect 0 0 1 0;
#X connect 1 0 19 0;
#X connect 1 0 20 0;
#X connect 1 0 21 0;
#X connect 1 0 22 0;
#X connect 1 0 16 0;
#X connect 1 0 18 0;
#X connect 3 0 15 0;
#X connect 3 1 9 0;
#X connect 5 0 14 0;
#X connect 5 1 9 0;
#X connect 6 0 13 0;
#X connect 6 1 9 0;
#X connect 7 0 12 0;
#X connect 7 1 9 0;
#X connect 8 0 11 0;
#X connect 8 1 9 0;
#X connect 9 0 2 0;
#X connect 9 0 4 0;
#X connect 10 0 9 0;
#X connect 11 0 9 1;
#X connect 12 0 9 2;
#X connect 13 0 9 3;
#X connect 14 0 9 4;
#X connect 15 0 9 5;
#X connect 16 0 3 0;
#X connect 18 0 10 0;
#X connect 19 0 8 0;
#X connect 20 0 7 0;
#X connect 21 0 6 0;
#X connect 22 0 5 0;
#X restore 272 104 pd Ichi;
#N canvas 510 238 450 328 Gyou 0;
#X obj 19 32 inlet;
#X obj 19 69 bng 15 250 50 0 empty empty empty 17 7 0 10 -262144 -1
-1;
#X obj 19 274 outlet;
#X obj 72 274 bng 15 250 50 0 empty empty empty 17 7 0 10 -262144 -1
-1;
#X obj 186 134 t f b;
#X obj 144 134 t f b;
#X obj 102 134 t f b;
#X obj 60 134 t f b;
#X obj 19 238 pack f f f f f f;
#X obj 19 171 mtof;
#X obj 60 171 mtof;
#X obj 102 171 mtof;
#X obj 144 171 mtof;
#X obj 186 171 mtof;
#X msg 228 108 0;
#X text 73 32 Acorde Gyou — A B D E F#;
#X msg 19 108 81;
#X msg 60 108 83;
#X msg 102 108 86;
#X msg 144 108 88;
#X msg 186 108 90;
#X connect 0 0 1 0;
#X connect 1 0 17 0;
#X connect 1 0 18 0;
#X connect 1 0 19 0;
#X connect 1 0 20 0;
#X connect 1 0 14 0;
#X connect 1 0 16 0;
#X connect 4 0 13 0;
#X connect 4 1 8 0;
#X connect 5 0 12 0;
#X connect 5 1 8 0;
#X connect 6 0 11 0;
#X connect 6 1 8 0;
#X connect 7 0 10 0;
#X connect 7 1 8 0;
#X connect 8 0 2 0;
#X connect 8 0 3 0;
#X connect 9 0 8 0;
#X connect 10 0 8 1;
#X connect 11 0 8 2;
#X connect 12 0 8 3;
#X connect 13 0 8 4;
#X connect 14 0 8 5;
#X connect 16 0 9 0;
#X connect 17 0 7 0;
#X connect 18 0 6 0;
#X connect 19 0 5 0;
#X connect 20 0 4 0;
#X restore 313 134 pd Gyou;
#N canvas 527 324 450 328 Bou 0;
#X obj 19 32 inlet;
#X obj 19 69 bng 15 250 50 0 empty empty empty 17 7 0 10 -262144 -1
-1;
#X obj 19 274 outlet;
#X obj 228 134 t f b;
#X obj 72 274 bng 15 250 50 0 empty empty empty 17 7 0 10 -262144 -1
-1;
#X obj 186 134 t f b;
#X obj 144 134 t f b;
#X obj 102 134 t f b;
#X obj 60 134 t f b;
#X obj 19 238 pack f f f f f f;
#X obj 19 171 mtof;
#X obj 60 171 mtof;
#X obj 102 171 mtof;
#X obj 144 171 mtof;
#X obj 186 171 mtof;
#X obj 228 171 mtof;
#X msg 228 108 90;
#X text 73 32 Acorde Bou — D E A B E F#;
#X msg 19 108 74;
#X msg 60 108 76;
#X msg 102 108 81;
#X msg 144 108 83;
#X msg 186 108 88;
#X connect 0 0 1 0;
#X connect 1 0 19 0;
#X connect 1 0 20 0;
#X connect 1 0 21 0;
#X connect 1 0 22 0;
#X connect 1 0 16 0;
#X connect 1 0 18 0;
#X connect 3 0 15 0;
#X connect 3 1 9 0;
#X connect 5 0 14 0;
#X connect 5 1 9 0;
#X connect 6 0 13 0;
#X connect 6 1 9 0;
#X connect 7 0 12 0;
#X connect 7 1 9 0;
#X connect 8 0 11 0;
#X connect 8 1 9 0;
#X connect 9 0 2 0;
#X connect 9 0 4 0;
#X connect 10 0 9 0;
#X connect 11 0 9 1;
#X connect 12 0 9 2;
#X connect 13 0 9 3;
#X connect 14 0 9 4;
#X connect 15 0 9 5;
#X connect 16 0 3 0;
#X connect 18 0 10 0;
#X connect 19 0 8 0;
#X connect 20 0 7 0;
#X connect 21 0 6 0;
#X connect 22 0 5 0;
#X restore 356 104 pd Bou;
#N canvas 474 281 450 328 Kotsu 0;
#X obj 19 32 inlet;
#X obj 19 69 bng 15 250 50 0 empty empty empty 17 7 0 10 -262144 -1
-1;
#X obj 19 274 outlet;
#X obj 228 134 t f b;
#X obj 72 274 bng 15 250 50 0 empty empty empty 17 7 0 10 -262144 -1
-1;
#X obj 186 134 t f b;
#X obj 144 134 t f b;
#X obj 102 134 t f b;
#X obj 60 134 t f b;
#X obj 19 238 pack f f f f f f;
#X obj 19 171 mtof;
#X obj 60 171 mtof;
#X obj 102 171 mtof;
#X obj 144 171 mtof;
#X obj 186 171 mtof;
#X obj 228 171 mtof;
#X msg 228 108 90;
#X msg 186 108 88;
#X text 73 32 Acorde Kotsu — A E A B E F#;
#X msg 19 108 69;
#X msg 60 108 76;
#X msg 102 108 81;
#X msg 144 108 83;
#X connect 0 0 1 0;
#X connect 1 0 20 0;
#X connect 1 0 21 0;
#X connect 1 0 22 0;
#X connect 1 0 17 0;
#X connect 1 0 16 0;
#X connect 1 0 19 0;
#X connect 3 0 15 0;
#X connect 3 1 9 0;
#X connect 5 0 14 0;
#X connect 5 1 9 0;
#X connect 6 0 13 0;
#X connect 6 1 9 0;
#X connect 7 0 12 0;
#X connect 7 1 9 0;
#X connect 8 0 11 0;
#X connect 8 1 9 0;
#X connect 9 0 2 0;
#X connect 9 0 4 0;
#X connect 10 0 9 0;
#X connect 11 0 9 1;
#X connect 12 0 9 2;
#X connect 13 0 9 3;
#X connect 14 0 9 4;
#X connect 15 0 9 5;
#X connect 16 0 3 0;
#X connect 17 0 5 0;
#X connect 19 0 10 0;
#X connect 20 0 8 0;
#X connect 21 0 7 0;
#X connect 22 0 6 0;
#X restore 398 134 pd Kotsu;
#N canvas 432 250 450 328 Hi 0;
#X obj 19 32 inlet;
#X obj 19 69 bng 15 250 50 0 empty empty empty 17 7 0 10 -262144 -1
-1;
#X obj 19 274 outlet;
#X obj 228 134 t f b;
#X obj 72 274 bng 15 250 50 0 empty empty empty 17 7 0 10 -262144 -1
-1;
#X obj 186 134 t f b;
#X obj 144 134 t f b;
#X obj 102 134 t f b;
#X obj 60 134 t f b;
#X obj 19 238 pack f f f f f f;
#X obj 19 171 mtof;
#X obj 60 171 mtof;
#X obj 102 171 mtof;
#X obj 144 171 mtof;
#X obj 186 171 mtof;
#X obj 228 171 mtof;
#X msg 228 108 90;
#X msg 186 108 88;
#X text 73 32 Acorde Hi — A B C D E F#;
#X msg 19 108 81;
#X msg 60 108 83;
#X msg 102 108 84;
#X msg 144 108 86;
#X connect 0 0 1 0;
#X connect 1 0 20 0;
#X connect 1 0 21 0;
#X connect 1 0 22 0;
#X connect 1 0 17 0;
#X connect 1 0 16 0;
#X connect 1 0 19 0;
#X connect 3 0 15 0;
#X connect 3 1 9 0;
#X connect 5 0 14 0;
#X connect 5 1 9 0;
#X connect 6 0 13 0;
#X connect 6 1 9 0;
#X connect 7 0 12 0;
#X connect 7 1 9 0;
#X connect 8 0 11 0;
#X connect 8 1 9 0;
#X connect 9 0 2 0;
#X connect 9 0 4 0;
#X connect 10 0 9 0;
#X connect 11 0 9 1;
#X connect 12 0 9 2;
#X connect 13 0 9 3;
#X connect 14 0 9 4;
#X connect 15 0 9 5;
#X connect 16 0 3 0;
#X connect 17 0 5 0;
#X connect 19 0 10 0;
#X connect 20 0 8 0;
#X connect 21 0 7 0;
#X connect 22 0 6 0;
#X restore 447 104 pd Hi;
#X connect 0 0 1 0;
#X connect 0 0 2 0;
#X connect 0 0 3 0;
#X connect 0 0 4 0;
#X connect 0 0 5 0;
#X connect 0 0 6 0;
#X connect 0 0 7 0;
#X connect 0 0 8 0;
#X connect 0 0 9 0;
#X connect 0 0 10 0;
#X connect 0 0 11 0;
#X connect 1 0 12 0;
#X connect 1 0 18 0;
#X connect 2 0 13 0;
#X connect 2 0 19 0;
#X connect 3 0 14 0;
#X connect 3 0 20 0;
#X connect 4 0 15 0;
#X connect 4 0 21 0;
#X connect 5 0 16 0;
#X connect 5 0 22 0;
#X connect 6 0 23 0;
#X connect 6 0 29 0;
#X connect 7 0 24 0;
#X connect 7 0 30 0;
#X connect 8 0 25 0;
#X connect 8 0 31 0;
#X connect 9 0 26 0;
#X connect 9 0 32 0;
#X connect 10 0 27 0;
#X connect 10 0 33 0;
#X connect 11 0 28 0;
#X connect 11 0 34 0;
#X connect 12 0 17 0;
#X connect 13 0 17 0;
#X connect 14 0 17 0;
#X connect 15 0 17 0;
#X connect 16 0 17 0;
#X connect 29 0 17 0;
#X connect 30 0 17 0;
#X connect 31 0 17 0;
#X connect 32 0 17 0;
#X connect 33 0 17 0;
#X connect 34 0 17 0;
#X restore 35 311 pd sho-chords;
#X obj 249 297 aEnvelope;
#X obj 35 366 *~;
#N canvas 542 167 551 429 sho-chords-strummed 0;
#X obj 30 44 inlet;
#X obj 338 141 i 15;
#X obj 30 308 i 110;
#X obj 74 308 i 220;
#X obj 119 308 i 440;
#X obj 163 308 i 880;
#X obj 208 308 i 1660;
#X obj 263 308 i 3220;
#X obj 224 158 del 15;
#X obj 249 185 del 15;
#X obj 274 212 del 15;
#X obj 299 239 del 15;
#X obj 324 266 del 15;
#X obj 30 359 outlet;
#X obj 84 360 outlet;
#X obj 139 359 outlet;
#X obj 193 360 outlet;
#X obj 248 359 outlet;
#X obj 303 360 outlet;
#X obj 224 133 bng 15 250 50 0 empty empty empty 17 7 0 10 -262144
-1 -1;
#N canvas 578 280 666 388 sho-chords 0;
#X obj 140 17 inlet;
#N canvas 674 266 450 365 Juu1 0;
#X obj 19 32 inlet;
#X text 73 32 Acorde Juu (i) — G A B D E;
#X obj 19 59 bng 15 250 50 0 empty empty empty 17 7 0 10 -262144 -1
-1;
#X obj 19 314 outlet;
#X obj 186 164 t f b;
#X obj 72 314 bng 15 250 50 0 empty empty empty 17 7 0 10 -262144 -1
-1;
#X obj 144 164 t f b;
#X obj 102 164 t f b;
#X obj 60 164 t f b;
#X obj 19 278 pack f f f f f f;
#X obj 228 164 t f b;
#X msg 19 108 79;
#X msg 60 108 81;
#X msg 102 108 83;
#X msg 144 108 86;
#X msg 186 108 88;
#X msg 228 108 0;
#X connect 0 0 2 0;
#X connect 2 0 11 0;
#X connect 2 0 12 0;
#X connect 2 0 13 0;
#X connect 2 0 14 0;
#X connect 2 0 15 0;
#X connect 2 0 16 0;
#X connect 4 0 9 4;
#X connect 4 1 9 0;
#X connect 6 0 9 3;
#X connect 6 1 9 0;
#X connect 7 0 9 2;
#X connect 7 1 9 0;
#X connect 8 0 9 1;
#X connect 8 1 9 0;
#X connect 9 0 3 0;
#X connect 9 0 5 0;
#X connect 10 0 9 5;
#X connect 10 1 9 0;
#X connect 11 0 9 0;
#X connect 12 0 8 0;
#X connect 13 0 7 0;
#X connect 14 0 6 0;
#X connect 15 0 4 0;
#X connect 16 0 10 0;
#X restore 20 104 pd Juu1;
#N canvas 639 324 450 359 Juu2 0;
#X obj 19 32 inlet;
#X msg 60 108 79;
#X msg 102 108 81;
#X msg 144 108 83;
#X msg 186 108 86;
#X msg 228 108 88;
#X obj 19 69 bng 15 250 50 0 empty empty empty 17 7 0 10 -262144 -1
-1;
#X obj 19 274 outlet;
#X obj 228 134 t f b;
#X obj 72 274 bng 15 250 50 0 empty empty empty 17 7 0 10 -262144 -1
-1;
#X obj 186 134 t f b;
#X obj 144 134 t f b;
#X obj 102 134 t f b;
#X text 73 32 Acorde Juu (ii) — F# G A B D E;
#X obj 60 134 t f b;
#X obj 19 238 pack f f f f f f;
#X msg 19 108 78;
#X connect 0 0 6 0;
#X connect 1 0 14 0;
#X connect 2 0 12 0;
#X connect 3 0 11 0;
#X connect 4 0 10 0;
#X connect 5 0 8 0;
#X connect 6 0 1 0;
#X connect 6 0 2 0;
#X connect 6 0 3 0;
#X connect 6 0 4 0;
#X connect 6 0 5 0;
#X connect 6 0 16 0;
#X connect 8 0 15 5;
#X connect 8 1 15 0;
#X connect 10 0 15 4;
#X connect 10 1 15 0;
#X connect 11 0 15 3;
#X connect 11 1 15 0;
#X connect 12 0 15 2;
#X connect 12 1 15 0;
#X connect 14 0 15 1;
#X connect 14 1 15 0;
#X connect 15 0 7 0;
#X connect 15 0 9 0;
#X connect 16 0 15 0;
#X restore 62 134 pd Juu2;
#N canvas 792 352 450 352 Ge 0;
#X obj 19 32 inlet;
#X msg 102 108 81;
#X msg 144 108 83;
#X msg 186 108 86;
#X obj 19 69 bng 15 250 50 0 empty empty empty 17 7 0 10 -262144 -1
-1;
#X obj 19 284 outlet;
#X obj 228 134 t f b;
#X obj 72 284 bng 15 250 50 0 empty empty empty 17 7 0 10 -262144 -1
-1;
#X obj 186 134 t f b;
#X obj 144 134 t f b;
#X obj 102 134 t f b;
#X obj 60 134 t f b;
#X obj 19 248 pack f f f f f f;
#X msg 19 108 78;
#X text 73 32 Acorde Ge — F# G# A B D F#;
#X msg 60 108 80;
#X msg 228 108 90;
#X connect 0 0 4 0;
#X connect 1 0 10 0;
#X connect 2 0 9 0;
#X connect 3 0 8 0;
#X connect 4 0 15 0;
#X connect 4 0 1 0;
#X connect 4 0 2 0;
#X connect 4 0 3 0;
#X connect 4 0 16 0;
#X connect 4 0 13 0;
#X connect 6 0 12 5;
#X connect 6 1 12 0;
#X connect 8 0 12 4;
#X connect 8 1 12 0;
#X connect 9 0 12 3;
#X connect 9 1 12 0;
#X connect 10 0 12 2;
#X connect 10 1 12 0;
#X connect 11 0 12 1;
#X connect 11 1 12 0;
#X connect 12 0 5 0;
#X connect 12 0 7 0;
#X connect 13 0 12 0;
#X connect 15 0 11 0;
#X connect 16 0 6 0;
#X restore 104 104 pd Ge;
#N canvas 712 335 450 354 Otsu 0;
#X obj 19 32 inlet;
#X obj 19 69 bng 15 250 50 0 empty empty empty 17 7 0 10 -262144 -1
-1;
#X obj 19 274 outlet;
#X obj 228 134 t f b;
#X obj 72 274 bng 15 250 50 0 empty empty empty 17 7 0 10 -262144 -1
-1;
#X obj 186 134 t f b;
#X obj 144 134 t f b;
#X obj 102 134 t f b;
#X obj 60 134 t f b;
#X obj 19 238 pack f f f f f f;
#X msg 228 108 90;
#X text 73 32 Acorde Otsu — E A B D E F#;
#X msg 19 108 76;
#X msg 60 108 81;
#X msg 102 108 83;
#X msg 144 108 86;
#X msg 186 108 88;
#X connect 0 0 1 0;
#X connect 1 0 13 0;
#X connect 1 0 14 0;
#X connect 1 0 15 0;
#X connect 1 0 16 0;
#X connect 1 0 10 0;
#X connect 1 0 12 0;
#X connect 3 0 9 5;
#X connect 3 1 9 0;
#X connect 5 0 9 4;
#X connect 5 1 9 0;
#X connect 6 0 9 3;
#X connect 6 1 9 0;
#X connect 7 0 9 2;
#X connect 7 1 9 0;
#X connect 8 0 9 1;
#X connect 8 1 9 0;
#X connect 9 0 2 0;
#X connect 9 0 4 0;
#X connect 10 0 3 0;
#X connect 12 0 9 0;
#X connect 13 0 8 0;
#X connect 14 0 7 0;
#X connect 15 0 6 0;
#X connect 16 0 5 0;
#X restore 146 134 pd Otsu;
#N canvas 558 222 450 328 Kuu 0;
#X obj 19 32 inlet;
#X obj 19 69 bng 15 250 50 0 empty empty empty 17 7 0 10 -262144 -1
-1;
#X obj 19 274 outlet;
#X obj 228 134 t f b;
#X obj 72 274 bng 15 250 50 0 empty empty empty 17 7 0 10 -262144 -1
-1;
#X obj 186 134 t f b;
#X obj 144 134 t f b;
#X obj 102 134 t f b;
#X obj 60 134 t f b;
#X obj 19 238 pack f f f f f f;
#X msg 19 108 73;
#X msg 60 108 74;
#X msg 102 108 76;
#X msg 144 108 80;
#X msg 186 108 81;
#X msg 228 108 83;
#X text 73 32 Acorde Kuu — C# D E G# A B;
#X connect 0 0 1 0;
#X connect 1 0 11 0;
#X connect 1 0 12 0;
#X connect 1 0 13 0;
#X connect 1 0 14 0;
#X connect 1 0 15 0;
#X connect 1 0 10 0;
#X connect 3 0 9 5;
#X connect 3 1 9 0;
#X connect 5 0 9 4;
#X connect 5 1 9 0;
#X connect 6 0 9 3;
#X connect 6 1 9 0;
#X connect 7 0 9 2;
#X connect 7 1 9 0;
#X connect 8 0 9 1;
#X connect 8 1 9 0;
#X connect 9 0 2 0;
#X connect 9 0 4 0;
#X connect 10 0 9 0;
#X connect 11 0 8 0;
#X connect 12 0 7 0;
#X connect 13 0 6 0;
#X connect 14 0 5 0;
#X connect 15 0 3 0;
#X restore 188 104 pd Kuu;
#X obj 26 81 bng 15 250 50 0 empty empty empty 17 7 0 10 -262144 -1
-1;
#X obj 68 81 bng 15 250 50 0 empty empty empty 17 7 0 10 -262144 -1
-1;
#X obj 110 81 bng 15 250 50 0 empty empty empty 17 7 0 10 -262144 -1
-1;
#X obj 152 81 bng 15 250 50 0 empty empty empty 17 7 0 10 -262144 -1
-1;
#X obj 194 81 bng 15 250 50 0 empty empty empty 17 7 0 10 -262144 -1
-1;
#X obj 236 81 bng 15 250 50 0 empty empty empty 17 7 0 10 -262144 -1
-1;
#X obj 278 81 bng 15 250 50 0 empty empty empty 17 7 0 10 -262144 -1
-1;
#X obj 320 81 bng 15 250 50 0 empty empty empty 17 7 0 10 -262144 -1
-1;
#X obj 362 81 bng 15 250 50 0 empty empty empty 17 7 0 10 -262144 -1
-1;
#X obj 404 81 bng 15 250 50 0 empty empty empty 17 7 0 10 -262144 -1
-1;
#X obj 453 81 bng 15 250 50 0 empty empty empty 17 7 0 10 -262144 -1
-1;
#N canvas 658 332 450 328 Bi 0;
#X obj 19 32 inlet;
#X obj 19 69 bng 15 250 50 0 empty empty empty 17 7 0 10 -262144 -1
-1;
#X obj 19 274 outlet;
#X obj 228 134 t f b;
#X obj 72 274 bng 15 250 50 0 empty empty empty 17 7 0 10 -262144 -1
-1;
#X obj 186 134 t f b;
#X obj 144 134 t f b;
#X obj 102 134 t f b;
#X obj 60 134 t f b;
#X obj 19 238 pack f f f f f f;
#X text 73 32 Acorde Bi — G# A B C E F#;
#X msg 228 108 90;
#X msg 186 108 88;
#X msg 144 108 84;
#X msg 102 108 83;
#X msg 60 108 81;
#X msg 19 108 80;
#X connect 0 0 1 0;
#X connect 1 0 15 0;
#X connect 1 0 14 0;
#X connect 1 0 13 0;
#X connect 1 0 12 0;
#X connect 1 0 11 0;
#X connect 1 0 16 0;
#X connect 3 0 9 5;
#X connect 3 1 9 0;
#X connect 5 0 9 4;
#X connect 5 1 9 0;
#X connect 6 0 9 3;
#X connect 6 1 9 0;
#X connect 7 0 9 2;
#X connect 7 1 9 0;
#X connect 8 0 9 1;
#X connect 8 1 9 0;
#X connect 9 0 2 0;
#X connect 9 0 4 0;
#X connect 11 0 3 0;
#X connect 12 0 5 0;
#X connect 13 0 6 0;
#X connect 14 0 7 0;
#X connect 15 0 8 0;
#X connect 16 0 9 0;
#X restore 230 134 pd Bi;
#N canvas 827 343 450 328 Ichi 0;
#X obj 19 32 inlet;
#X obj 19 69 bng 15 250 50 0 empty empty empty 17 7 0 10 -262144 -1
-1;
#X obj 19 274 outlet;
#X obj 228 134 t f b;
#X obj 72 274 bng 15 250 50 0 empty empty empty 17 7 0 10 -262144 -1
-1;
#X obj 186 134 t f b;
#X obj 144 134 t f b;
#X obj 102 134 t f b;
#X obj 60 134 t f b;
#X obj 19 238 pack f f f f f f;
#X msg 228 108 90;
#X text 73 32 Acorde Ichi — B D E A B F#;
#X msg 19 108 71;
#X msg 60 108 74;
#X msg 102 108 76;
#X msg 144 108 81;
#X msg 186 108 83;
#X connect 0 0 1 0;
#X connect 1 0 13 0;
#X connect 1 0 14 0;
#X connect 1 0 15 0;
#X connect 1 0 16 0;
#X connect 1 0 10 0;
#X connect 1 0 12 0;
#X connect 3 0 9 5;
#X connect 3 1 9 0;
#X connect 5 0 9 4;
#X connect 5 1 9 0;
#X connect 6 0 9 3;
#X connect 6 1 9 0;
#X connect 7 0 9 2;
#X connect 7 1 9 0;
#X connect 8 0 9 1;
#X connect 8 1 9 0;
#X connect 9 0 2 0;
#X connect 9 0 4 0;
#X connect 10 0 3 0;
#X connect 12 0 9 0;
#X connect 13 0 8 0;
#X connect 14 0 7 0;
#X connect 15 0 6 0;
#X connect 16 0 5 0;
#X restore 272 104 pd Ichi;
#N canvas 805 350 450 328 Gyou 0;
#X obj 19 32 inlet;
#X obj 19 69 bng 15 250 50 0 empty empty empty 17 7 0 10 -262144 -1
-1;
#X obj 19 274 outlet;
#X obj 72 274 bng 15 250 50 0 empty empty empty 17 7 0 10 -262144 -1
-1;
#X obj 186 134 t f b;
#X obj 144 134 t f b;
#X obj 102 134 t f b;
#X obj 60 134 t f b;
#X obj 19 238 pack f f f f f f;
#X msg 228 108 0;
#X text 73 32 Acorde Gyou — A B D E F#;
#X msg 19 108 81;
#X msg 60 108 83;
#X msg 102 108 86;
#X msg 144 108 88;
#X msg 186 108 90;
#X obj 228 134 t f b;
#X connect 0 0 1 0;
#X connect 1 0 12 0;
#X connect 1 0 13 0;
#X connect 1 0 14 0;
#X connect 1 0 15 0;
#X connect 1 0 9 0;
#X connect 1 0 11 0;
#X connect 4 0 8 4;
#X connect 4 1 8 0;
#X connect 5 0 8 3;
#X connect 5 1 8 0;
#X connect 6 0 8 2;
#X connect 6 1 8 0;
#X connect 7 0 8 1;
#X connect 7 1 8 0;
#X connect 8 0 2 0;
#X connect 8 0 3 0;
#X connect 9 0 16 0;
#X connect 11 0 8 0;
#X connect 12 0 7 0;
#X connect 13 0 6 0;
#X connect 14 0 5 0;
#X connect 15 0 4 0;
#X connect 16 0 8 5;
#X connect 16 1 8 0;
#X restore 313 134 pd Gyou;
#N canvas 712 314 450 328 Bou 0;
#X obj 19 32 inlet;
#X obj 19 69 bng 15 250 50 0 empty empty empty 17 7 0 10 -262144 -1
-1;
#X obj 19 274 outlet;
#X obj 228 134 t f b;
#X obj 72 274 bng 15 250 50 0 empty empty empty 17 7 0 10 -262144 -1
-1;
#X obj 186 134 t f b;
#X obj 144 134 t f b;
#X obj 102 134 t f b;
#X obj 60 134 t f b;
#X obj 19 238 pack f f f f f f;
#X msg 228 108 90;
#X text 73 32 Acorde Bou — D E A B E F#;
#X msg 19 108 74;
#X msg 60 108 76;
#X msg 102 108 81;
#X msg 144 108 83;
#X msg 186 108 88;
#X connect 0 0 1 0;
#X connect 1 0 13 0;
#X connect 1 0 14 0;
#X connect 1 0 15 0;
#X connect 1 0 16 0;
#X connect 1 0 10 0;
#X connect 1 0 12 0;
#X connect 3 0 9 5;
#X connect 3 1 9 0;
#X connect 5 0 9 4;
#X connect 5 1 9 0;
#X connect 6 0 9 3;
#X connect 6 1 9 0;
#X connect 7 0 9 2;
#X connect 7 1 9 0;
#X connect 8 0 9 1;
#X connect 8 1 9 0;
#X connect 9 0 2 0;
#X connect 9 0 4 0;
#X connect 10 0 3 0;
#X connect 12 0 9 0;
#X connect 13 0 8 0;
#X connect 14 0 7 0;
#X connect 15 0 6 0;
#X connect 16 0 5 0;
#X restore 356 104 pd Bou;
#N canvas 490 218 450 328 Kotsu 0;
#X obj 19 32 inlet;
#X obj 19 69 bng 15 250 50 0 empty empty empty 17 7 0 10 -262144 -1
-1;
#X obj 19 274 outlet;
#X obj 228 134 t f b;
#X obj 72 274 bng 15 250 50 0 empty empty empty 17 7 0 10 -262144 -1
-1;
#X obj 186 134 t f b;
#X obj 144 134 t f b;
#X obj 102 134 t f b;
#X obj 60 134 t f b;
#X obj 19 238 pack f f f f f f;
#X msg 228 108 90;
#X msg 186 108 88;
#X text 73 32 Acorde Kotsu — A E A B E F#;
#X msg 19 108 69;
#X msg 60 108 76;
#X msg 102 108 81;
#X msg 144 108 83;
#X connect 0 0 1 0;
#X connect 1 0 14 0;
#X connect 1 0 15 0;
#X connect 1 0 16 0;
#X connect 1 0 11 0;
#X connect 1 0 10 0;
#X connect 1 0 13 0;
#X connect 3 0 9 5;
#X connect 3 1 9 0;
#X connect 5 0 9 4;
#X connect 5 1 9 0;
#X connect 6 0 9 3;
#X connect 6 1 9 0;
#X connect 7 0 9 2;
#X connect 7 1 9 0;
#X connect 8 0 9 1;
#X connect 8 1 9 0;
#X connect 9 0 2 0;
#X connect 9 0 4 0;
#X connect 10 0 3 0;
#X connect 11 0 5 0;
#X connect 13 0 9 0;
#X connect 14 0 8 0;
#X connect 15 0 7 0;
#X connect 16 0 6 0;
#X restore 398 134 pd Kotsu;
#N canvas 772 248 450 328 Hi 0;
#X obj 19 32 inlet;
#X obj 19 69 bng 15 250 50 0 empty empty empty 17 7 0 10 -262144 -1
-1;
#X obj 19 274 outlet;
#X obj 228 134 t f b;
#X obj 72 274 bng 15 250 50 0 empty empty empty 17 7 0 10 -262144 -1
-1;
#X obj 186 134 t f b;
#X obj 144 134 t f b;
#X obj 102 134 t f b;
#X obj 60 134 t f b;
#X obj 19 238 pack f f f f f f;
#X msg 228 108 90;
#X msg 186 108 88;
#X text 73 32 Acorde Hi — A B C D E F#;
#X msg 19 108 81;
#X msg 60 108 83;
#X msg 102 108 84;
#X msg 144 108 86;
#X connect 0 0 1 0;
#X connect 1 0 14 0;
#X connect 1 0 15 0;
#X connect 1 0 16 0;
#X connect 1 0 11 0;
#X connect 1 0 10 0;
#X connect 1 0 13 0;
#X connect 3 0 9 5;
#X connect 3 1 9 0;
#X connect 5 0 9 4;
#X connect 5 1 9 0;
#X connect 6 0 9 3;
#X connect 6 1 9 0;
#X connect 7 0 9 2;
#X connect 7 1 9 0;
#X connect 8 0 9 1;
#X connect 8 1 9 0;
#X connect 9 0 2 0;
#X connect 9 0 4 0;
#X connect 10 0 3 0;
#X connect 11 0 5 0;
#X connect 13 0 9 0;
#X connect 14 0 8 0;
#X connect 15 0 7 0;
#X connect 16 0 6 0;
#X restore 447 104 pd Hi;
#X obj 230 184 unpack f f f f f f;
#X floatatom 230 206 5 0 0 0 - - -, f 5;
#X floatatom 254 226 5 0 0 0 - - -, f 5;
#X floatatom 279 206 5 0 0 0 - - -, f 5;
#X floatatom 303 226 5 0 0 0 - - -, f 5;
#X floatatom 328 206 5 0 0 0 - - -, f 5;
#X floatatom 353 226 5 0 0 0 - - -, f 5;
#X obj 140 39 route 1 2 3 4 5 6 7 8 9 10 11;
#X obj 230 319 outlet;
#X obj 254 340 outlet;
#X obj 279 319 outlet;
#X obj 303 340 outlet;
#X obj 328 319 outlet;
#X obj 353 340 outlet;
#X obj 395 290 spigot;
#X msg 434 262 0;
#X obj 434 240 sel 0;
#X msg 466 262 1;
#X obj 395 312 ftom;
#X obj 465 290 spigot;
#X obj 504 240 sel 0;
#X msg 504 262 1;
#X msg 536 262 0;
#X connect 0 0 30 0;
#X connect 1 0 23 0;
#X connect 2 0 23 0;
#X connect 3 0 23 0;
#X connect 4 0 23 0;
#X connect 5 0 23 0;
#X connect 17 0 23 0;
#X connect 18 0 23 0;
#X connect 19 0 23 0;
#X connect 20 0 23 0;
#X connect 21 0 23 0;
#X connect 22 0 23 0;
#X connect 23 0 24 0;
#X connect 23 1 25 0;
#X connect 23 2 26 0;
#X connect 23 3 27 0;
#X connect 23 4 28 0;
#X connect 23 5 29 0;
#X connect 24 0 31 0;
#X connect 25 0 32 0;
#X connect 26 0 33 0;
#X connect 27 0 34 0;
#X connect 28 0 35 0;
#X connect 29 0 39 0;
#X connect 29 0 37 0;
#X connect 29 0 42 0;
#X connect 29 0 43 0;
#X connect 30 0 1 0;
#X connect 30 0 6 0;
#X connect 30 1 2 0;
#X connect 30 1 7 0;
#X connect 30 2 3 0;
#X connect 30 2 8 0;
#X connect 30 3 4 0;
#X connect 30 3 9 0;
#X connect 30 4 5 0;
#X connect 30 4 10 0;
#X connect 30 5 17 0;
#X connect 30 5 11 0;
#X connect 30 6 18 0;
#X connect 30 6 12 0;
#X connect 30 7 19 0;
#X connect 30 7 13 0;
#X connect 30 8 20 0;
#X connect 30 8 14 0;
#X connect 30 9 21 0;
#X connect 30 9 15 0;
#X connect 30 10 22 0;
#X connect 30 10 16 0;
#X connect 37 0 41 0;
#X connect 38 0 37 1;
#X connect 39 0 38 0;
#X connect 39 1 40 0;
#X connect 40 0 37 1;
#X connect 41 0 36 0;
#X connect 42 0 36 0;
#X connect 43 0 44 0;
#X connect 43 1 45 0;
#X connect 44 0 42 1;
#X restore 30 71 pd sho-chords;
#X obj 224 185 bng 15 250 50 0 empty empty empty 17 7 0 10 -262144
-1 -1;
#X obj 249 212 bng 15 250 50 0 empty empty empty 17 7 0 10 -262144
-1 -1;
#X obj 274 239 bng 15 250 50 0 empty empty empty 17 7 0 10 -262144
-1 -1;
#X obj 299 266 bng 15 250 50 0 empty empty empty 17 7 0 10 -262144
-1 -1;
#X obj 324 293 bng 15 250 50 0 empty empty empty 17 7 0 10 -262144
-1 -1;
#X obj 341 41 hsl 128 15 0 1 0 0 empty empty strum_speed 4 8 0 10 -262144
-1 -1 0 1;
#X obj 338 61 *;
#X floatatom 338 108 5 0 0 0 - - -, f 5;
#X obj 338 83 / 6;
#X text 21 22 chord selection;
#X text 181 22 metronome tempo;
#X floatatom 475 42 7 0 0 0 - - -, f 7;
#X obj 210 66 t b f;
#X obj 210 44 inlet;
#X connect 0 0 20 0;
#X connect 1 0 8 1;
#X connect 1 0 9 1;
#X connect 1 0 10 1;
#X connect 1 0 11 1;
#X connect 1 0 12 1;
#X connect 2 0 13 0;
#X connect 3 0 14 0;
#X connect 4 0 15 0;
#X connect 5 0 16 0;
#X connect 6 0 17 0;
#X connect 7 0 18 0;
#X connect 8 0 9 0;
#X connect 8 0 3 0;
#X connect 8 0 21 0;
#X connect 9 0 10 0;
#X connect 9 0 4 0;
#X connect 9 0 22 0;
#X connect 10 0 11 0;
#X connect 10 0 5 0;
#X connect 10 0 23 0;
#X connect 11 0 12 0;
#X connect 11 0 6 0;
#X connect 11 0 24 0;
#X connect 12 0 7 0;
#X connect 12 0 25 0;
#X connect 19 0 8 0;
#X connect 19 0 2 0;
#X connect 20 0 19 0;
#X connect 20 0 2 1;
#X connect 20 1 3 1;
#X connect 20 2 4 1;
#X connect 20 3 5 1;
#X connect 20 4 6 1;
#X connect 20 5 7 1;
#X connect 26 0 27 0;
#X connect 27 0 29 0;
#X connect 28 0 1 0;
#X connect 28 0 32 0;
#X connect 29 0 28 0;
#X connect 33 0 27 0;
#X connect 33 1 27 1;
#X connect 34 0 33 0;
#X coords 0 -1 1 1 194 40 1 335 20;
#X restore 489 34 pd sho-chords-strummed;
#N canvas 151 131 504 361 sho-info 0;
#X obj 256 101 table sho-scale;
#X msg 26 48 \; sho-scale 0 69 71 73 74 76 77 78 79 80 81 82 83 84
85 86 88 90;
#X obj 26 26 loadbang;
#X msg 26 101 \; sho-juu1 0 79 81 83 86 88 0 \; sho-juu2 0 78 79 81
83 86 88 \; sho-ge 0 78 80 81 83 86 90 \; sho-otsu 0 76 81 83 86 88
90 \; sho-kuu 0 73 74 76 80 81 83 \; sho-bi 0 80 81 83 84 88 90 \;
sho-ichi 0 71 74 76 81 83 90 \; sho-gyou 0 81 83 86 88 90 0 \; sho-bou
0 74 76 81 83 88 90 \; sho-kotsu 0 69 76 81 83 88 90 \; sho-hi 0 81
83 84 86 88 90;
#X obj 256 121 table sho-juu1;
#X obj 256 141 table sho-juu2;
#X obj 256 161 table sho-ge;
#X obj 256 181 table sho-otsu;
#X obj 256 201 table sho-kuu;
#X obj 256 221 table sho-bi;
#X obj 256 241 table sho-ichi;
#X obj 256 261 table sho-gyou;
#X obj 256 281 table sho-bou;
#X obj 256 301 table sho-kotsu;
#X obj 256 321 table sho-hi;
#N canvas 551 260 450 300 sho-acordes 0;
#X text 23 22 Acorde Juu (i) — G A B D E;
#X text 23 42 Acorde Juu (ii) — F# G A B D E;
#X text 23 62 Acorde Ge — F# G# A B D F#;
#X text 23 82 Acorde Otsu — E A B D E F#;
#X text 23 102 Acorde Kuu — C# D E G# A B;
#X text 23 122 Acorde Bi — G# A B C E F#;
#X text 23 142 Acorde Ichi — B D E A B F#;
#X text 23 162 Acorde Gyou — A B D E F#;
#X text 23 182 Acorde Bou — D E A B E F#;
#X text 23 202 Acorde Kotsu — A E A B E F#;
#X text 23 222 Acorde Hi — A B C D E F#;
#X restore 106 26 pd sho-acordes;
#N canvas 338 326 611 243 sho-chord-notes 0;
#X obj 230 17 inlet;
#X obj 20 58 sel 1;
#X obj 62 58 sel 2;
#X obj 104 58 sel 3;
#X obj 146 58 sel 4;
#X obj 188 58 sel 5;
#X obj 230 58 sel 6;
#X obj 272 58 sel 7;
#X obj 314 58 sel 8;
#X obj 356 58 sel 9;
#X obj 398 58 sel 10;
#X obj 447 58 sel 11;
#N canvas 383 307 645 365 Juu1 0;
#X obj 19 14 inlet;
#X text 73 32 Acorde Juu (i) — G A B D E;
#X obj 19 184 outlet;
#X obj 19 41 bng 15 250 50 0 empty empty empty 17 7 0 10 -262144 -1
-1;
#X floatatom 19 86 5 0 0 0 - - -, f 5;
#X floatatom 19 129 5 0 0 0 - - -, f 5;
#X obj 19 107 tabread sho-juu1;
#X obj 19 62 random 5;
#X connect 0 0 3 0;
#X connect 3 0 7 0;
#X connect 4 0 6 0;
#X connect 5 0 2 0;
#X connect 6 0 5 0;
#X connect 7 0 4 0;
#X restore 20 104 pd Juu1;
#N canvas 1278 486 450 359 Juu2 0;
#X text 73 32 Acorde Juu (ii) — F# G A B D E;
#X obj 19 14 inlet;
#X obj 19 184 outlet;
#X obj 19 41 bng 15 250 50 0 empty empty empty 17 7 0 10 -262144 -1
-1;
#X floatatom 19 86 5 0 0 0 - - -, f 5;
#X floatatom 19 129 5 0 0 0 - - -, f 5;
#X obj 19 62 random 6;
#X obj 19 107 tabread sho-juu2;
#X connect 1 0 3 0;
#X connect 3 0 6 0;
#X connect 4 0 7 0;
#X connect 5 0 2 0;
#X connect 6 0 4 0;
#X connect 7 0 5 0;
#X restore 62 134 pd Juu2;
#N canvas 1150 407 450 352 Ge 0;
#X text 73 32 Acorde Ge — F# G# A B D F#;
#X obj 19 14 inlet;
#X obj 19 184 outlet;
#X obj 19 41 bng 15 250 50 0 empty empty empty 17 7 0 10 -262144 -1
-1;
#X floatatom 19 86 5 0 0 0 - - -, f 5;
#X floatatom 19 129 5 0 0 0 - - -, f 5;
#X obj 19 62 random 6;
#X obj 19 107 tabread sho-ge;
#X connect 1 0 3 0;
#X connect 3 0 6 0;
#X connect 4 0 7 0;
#X connect 5 0 2 0;
#X connect 6 0 4 0;
#X connect 7 0 5 0;
#X restore 104 104 pd Ge;
#N canvas 1196 447 450 358 Otsu 0;
#X text 73 32 Acorde Otsu — E A B D E F#;
#X obj 19 14 inlet;
#X obj 19 184 outlet;
#X obj 19 41 bng 15 250 50 0 empty empty empty 17 7 0 10 -262144 -1
-1;
#X floatatom 19 86 5 0 0 0 - - -, f 5;
#X floatatom 19 129 5 0 0 0 - - -, f 5;
#X obj 19 62 random 6;
#X obj 19 107 tabread sho-otsu;
#X connect 1 0 3 0;
#X connect 3 0 6 0;
#X connect 4 0 7 0;
#X connect 5 0 2 0;
#X connect 6 0 4 0;
#X connect 7 0 5 0;
#X restore 146 134 pd Otsu;
#N canvas 1281 402 450 459 Kuu 0;
#X text 73 32 Acorde Kuu — C# D E G# A B;
#X obj 19 14 inlet;
#X obj 19 184 outlet;
#X obj 19 41 bng 15 250 50 0 empty empty empty 17 7 0 10 -262144 -1
-1;
#X floatatom 19 86 5 0 0 0 - - -, f 5;
#X floatatom 19 129 5 0 0 0 - - -, f 5;
#X obj 19 62 random 6;
#X obj 19 107 tabread sho-kuu;
#X connect 1 0 3 0;
#X connect 3 0 6 0;
#X connect 4 0 7 0;
#X connect 5 0 2 0;
#X connect 6 0 4 0;
#X connect 7 0 5 0;
#X restore 188 104 pd Kuu;
#X obj 230 213 outlet;
#X obj 26 81 bng 15 250 50 0 empty empty empty 17 7 0 10 -262144 -1
-1;
#X obj 68 81 bng 15 250 50 0 empty empty empty 17 7 0 10 -262144 -1
-1;
#X obj 110 81 bng 15 250 50 0 empty empty empty 17 7 0 10 -262144 -1
-1;
#X obj 152 81 bng 15 250 50 0 empty empty empty 17 7 0 10 -262144 -1
-1;
#X obj 194 81 bng 15 250 50 0 empty empty empty 17 7 0 10 -262144 -1
-1;
#X obj 236 81 bng 15 250 50 0 empty empty empty 17 7 0 10 -262144 -1
-1;
#X obj 278 81 bng 15 250 50 0 empty empty empty 17 7 0 10 -262144 -1
-1;
#X obj 320 81 bng 15 250 50 0 empty empty empty 17 7 0 10 -262144 -1
-1;
#X obj 362 81 bng 15 250 50 0 empty empty empty 17 7 0 10 -262144 -1
-1;
#X obj 404 81 bng 15 250 50 0 empty empty empty 17 7 0 10 -262144 -1
-1;
#X obj 453 81 bng 15 250 50 0 empty empty empty 17 7 0 10 -262144 -1
-1;
#N canvas 1058 388 450 485 Bi 0;
#X text 73 32 Acorde Bi — G# A B C E F#;
#X obj 19 14 inlet;
#X obj 19 184 outlet;
#X obj 19 41 bng 15 250 50 0 empty empty empty 17 7 0 10 -262144 -1
-1;
#X floatatom 19 86 5 0 0 0 - - -, f 5;
#X floatatom 19 129 5 0 0 0 - - -, f 5;
#X obj 19 62 random 6;
#X obj 19 107 tabread sho-bi;
#X connect 1 0 3 0;
#X connect 3 0 6 0;
#X connect 4 0 7 0;
#X connect 5 0 2 0;
#X connect 6 0 4 0;
#X connect 7 0 5 0;
#X restore 230 134 pd Bi;
#N canvas 1163 362 450 430 Ichi 0;
#X text 73 32 Acorde Ichi — B D E A B F#;
#X obj 19 14 inlet;
#X obj 19 184 outlet;
#X obj 19 41 bng 15 250 50 0 empty empty empty 17 7 0 10 -262144 -1
-1;
#X floatatom 19 86 5 0 0 0 - - -, f 5;
#X floatatom 19 129 5 0 0 0 - - -, f 5;
#X obj 19 62 random 6;
#X obj 19 107 tabread sho-ichi;
#X connect 1 0 3 0;
#X connect 3 0 6 0;
#X connect 4 0 7 0;
#X connect 5 0 2 0;
#X connect 6 0 4 0;
#X connect 7 0 5 0;
#X restore 272 104 pd Ichi;
#N canvas 1135 593 450 529 Gyou 0;
#X text 73 32 Acorde Gyou — A B D E F#;
#X obj 19 14 inlet;
#X obj 19 184 outlet;
#X obj 19 41 bng 15 250 50 0 empty empty empty 17 7 0 10 -262144 -1
-1;
#X floatatom 19 86 5 0 0 0 - - -, f 5;
#X floatatom 19 129 5 0 0 0 - - -, f 5;
#X obj 19 62 random 6;
#X obj 19 107 tabread sho-gyou;
#X connect 1 0 3 0;
#X connect 3 0 6 0;
#X connect 4 0 7 0;
#X connect 5 0 2 0;
#X connect 6 0 4 0;
#X connect 7 0 5 0;
#X restore 314 134 pd Gyou;
#N canvas 903 544 450 485 Bou 0;
#X text 73 32 Acorde Bou — D E A B E F#;
#X obj 19 14 inlet;
#X obj 19 184 outlet;
#X obj 19 41 bng 15 250 50 0 empty empty empty 17 7 0 10 -262144 -1
-1;
#X floatatom 19 86 5 0 0 0 - - -, f 5;
#X floatatom 19 129 5 0 0 0 - - -, f 5;
#X obj 19 62 random 6;
#X obj 19 107 tabread sho-bou;
#X connect 1 0 3 0;
#X connect 3 0 6 0;
#X connect 4 0 7 0;
#X connect 5 0 2 0;
#X connect 6 0 4 0;
#X connect 7 0 5 0;
#X restore 356 104 pd Bou;
#N canvas 653 347 450 518 Kotsu 0;
#X text 73 32 Acorde Kotsu — A E A B E F#;
#X obj 19 14 inlet;
#X obj 19 184 outlet;
#X obj 19 41 bng 15 250 50 0 empty empty empty 17 7 0 10 -262144 -1
-1;
#X floatatom 19 86 5 0 0 0 - - -, f 5;
#X floatatom 19 129 5 0 0 0 - - -, f 5;
#X obj 19 62 random 6;
#X obj 19 107 tabread sho-kotsu;
#X connect 1 0 3 0;
#X connect 3 0 6 0;
#X connect 4 0 7 0;
#X connect 5 0 2 0;
#X connect 6 0 4 0;
#X connect 7 0 5 0;
#X restore 398 134 pd Kotsu;
#N canvas 950 469 450 455 Hi 0;
#X text 73 32 Acorde Hi — A B C D E F#;
#X obj 19 14 inlet;
#X obj 19 184 outlet;
#X obj 19 41 bng 15 250 50 0 empty empty empty 17 7 0 10 -262144 -1
-1;
#X floatatom 19 86 5 0 0 0 - - -, f 5;
#X floatatom 19 129 5 0 0 0 - - -, f 5;
#X obj 19 62 random 6;
#X obj 19 107 tabread sho-hi;
#X connect 1 0 3 0;
#X connect 3 0 6 0;
#X connect 4 0 7 0;
#X connect 5 0 2 0;
#X connect 6 0 4 0;
#X connect 7 0 5 0;
#X restore 447 104 pd Hi;
#X connect 0 0 1 0;
#X connect 0 0 2 0;
#X connect 0 0 3 0;
#X connect 0 0 4 0;
#X connect 0 0 5 0;
#X connect 0 0 6 0;
#X connect 0 0 7 0;
#X connect 0 0 8 0;
#X connect 0 0 9 0;
#X connect 0 0 10 0;
#X connect 0 0 11 0;
#X connect 1 0 12 0;
#X connect 1 0 18 0;
#X connect 2 0 19 0;
#X connect 2 0 13 0;
#X connect 3 0 20 0;
#X connect 3 0 14 0;
#X connect 4 0 21 0;
#X connect 4 0 15 0;
#X connect 5 0 22 0;
#X connect 5 0 16 0;
#X connect 6 0 23 0;
#X connect 6 0 29 0;
#X connect 7 0 24 0;
#X connect 7 0 30 0;
#X connect 8 0 25 0;
#X connect 8 0 31 0;
#X connect 9 0 26 0;
#X connect 9 0 32 0;
#X connect 10 0 27 0;
#X connect 10 0 33 0;
#X connect 11 0 28 0;
#X connect 11 0 34 0;
#X connect 12 0 17 0;
#X connect 13 0 17 0;
#X connect 14 0 17 0;
#X connect 15 0 17 0;
#X connect 16 0 17 0;
#X connect 29 0 17 0;
#X connect 30 0 17 0;
#X connect 31 0 17 0;
#X connect 32 0 17 0;
#X connect 33 0 17 0;
#X connect 34 0 17 0;
#X restore 218 26 pd sho-chord-notes;
#X connect 2 0 1 0;
#X connect 2 0 3 0;
#X restore 267 31 pd sho-info;
#X obj 35 85 aClockDivision;
#X obj 249 417 aVol;
#N canvas 847 79 883 650 percussoes 0;
#N canvas 858 290 976 573 kakkoTone 0;
#X obj 30 33 inlet~;
#X obj 30 355 outlet~;
#X obj 30 243 bp~ 592.181 200;
#X obj 117 270 bp~ 810.926 190;
#X obj 204 243 bp~ 1214.44 210;
#X obj 292 270 bp~ 1621.77 200;
#X obj 381 243 bp~ 2105.89 200;
#X obj 467 273 bp~ 2967.48 190;
#X obj 554 243 bp~ 3291.93 190;
#X obj 640 273 bp~ 3830.3 180;
#X obj 728 243 bp~ 4683.92 200;
#X obj 30 196 *~ 0.029641;
#X obj 117 196 *~ 0.163198;
#X obj 205 196 *~ 0.034336;
#X obj 293 196 *~ 0.017672;
#X obj 380 196 *~ 0.015414;
#X obj 467 196 *~ 0.003436;
#X obj 554 196 *~ 0.002702;
#X obj 641 196 *~ 0.001334;
#X obj 728 196 *~ 0.001919;
#X obj 104 33 vsl 15 128 0 0.2 0 0 empty empty empty 0 -9 0 10 -262144
-1 -1 1828 1;
#X floatatom 104 174 7 0 0 0 - - -, f 7;
#X obj 191 33 vsl 15 128 0 0.2 0 0 empty empty empty 0 -9 0 10 -262144
-1 -1 10363 1;
#X floatatom 191 174 7 0 0 0 - - -, f 7;
#X obj 279 33 vsl 15 128 0 0.2 0 0 empty empty empty 0 -9 0 10 -262144
-1 -1 2180 1;
#X floatatom 279 174 7 0 0 0 - - -, f 7;
#X obj 367 33 vsl 15 128 0 0.2 0 0 empty empty empty 0 -9 0 10 -262144
-1 -1 1122 1;
#X floatatom 367 174 7 0 0 0 - - -, f 7;
#X obj 454 33 vsl 15 128 0 0.2 0 0 empty empty empty 0 -9 0 10 -262144
-1 -1 979 1;
#X floatatom 454 174 7 0 0 0 - - -, f 7;
#X obj 541 33 vsl 15 128 0 0.01 0 0 empty empty empty 0 -9 0 10 -262130
-1 -1 4364 1;
#X floatatom 541 174 7 0 0 0 - - -, f 7;
#X obj 628 33 vsl 15 128 0 0.01 0 0 empty empty empty 0 -9 0 10 -262130
-1 -1 3432 1;
#X floatatom 628 174 7 0 0 0 - - -, f 7;
#X obj 714 33 vsl 15 128 0 0.01 0 0 empty empty empty 0 -9 0 10 -262130
-1 -1 1694 1;
#X floatatom 714 174 7 0 0 0 - - -, f 7;
#X obj 802 33 vsl 15 128 0 0.01 0 0 empty empty empty 0 -9 0 10 -262130
-1 -1 2437 1;
#X floatatom 802 174 7 0 0 0 - - -, f 7;
#X msg 247 382 0.028794;
#X msg 257 402 0.163198;
#X msg 267 422 0.034336;
#X msg 277 442 0.017672;
#X msg 287 462 0.015414;
#X msg 297 482 0.003436;
#X msg 307 502 0.002702;
#X msg 317 522 0.001334;
#X msg 327 542 0.001919;
#X obj 146 397 loadbang;
#X connect 0 0 11 0;
#X connect 0 0 12 0;
#X connect 0 0 13 0;
#X connect 0 0 14 0;
#X connect 0 0 15 0;
#X connect 0 0 16 0;
#X connect 0 0 17 0;
#X connect 0 0 18 0;
#X connect 0 0 19 0;
#X connect 2 0 1 0;
#X connect 3 0 1 0;
#X connect 4 0 1 0;
#X connect 5 0 1 0;
#X connect 6 0 1 0;
#X connect 7 0 1 0;
#X connect 8 0 1 0;
#X connect 9 0 1 0;
#X connect 10 0 1 0;
#X connect 11 0 2 0;
#X connect 12 0 3 0;
#X connect 13 0 4 0;
#X connect 14 0 5 0;
#X connect 15 0 6 0;
#X connect 16 0 7 0;
#X connect 17 0 8 0;
#X connect 18 0 9 0;
#X connect 19 0 10 0;
#X connect 20 0 21 0;
#X connect 21 0 11 1;
#X connect 22 0 23 0;
#X connect 23 0 12 1;
#X connect 24 0 25 0;
#X connect 25 0 13 1;
#X connect 26 0 27 0;
#X connect 27 0 14 1;
#X connect 28 0 29 0;
#X connect 29 0 15 1;
#X connect 30 0 31 0;
#X connect 31 0 16 1;
#X connect 32 0 33 0;
#X connect 33 0 17 1;
#X connect 34 0 35 0;
#X connect 35 0 18 1;
#X connect 36 0 37 0;
#X connect 37 0 19 1;
#X connect 38 0 20 0;
#X connect 39 0 22 0;
#X connect 40 0 24 0;
#X connect 41 0 26 0;
#X connect 42 0 28 0;
#X connect 43 0 30 0;
#X connect 44 0 32 0;
#X connect 45 0 34 0;
#X connect 46 0 36 0;
#X connect 47 0 38 0;
#X connect 47 0 39 0;
#X connect 47 0 40 0;
#X connect 47 0 41 0;
#X connect 47 0 42 0;
#X connect 47 0 43 0;
#X connect 47 0 44 0;
#X connect 47 0 45 0;
#X connect 47 0 46 0;
#X restore 49 364 pd kakkoTone;
#N canvas 108 90 1038 577 kakkoKatarai 0;
#X obj 41 32 inlet;
#X obj 130 32 inlet;
#X text 124 6 time metronome;
#X text 36 6 first bang;
#X obj 41 56 bng 15 250 50 0 empty empty empty 17 7 0 10 -262144 -1
-1;
#X obj 73 103 bng 15 250 50 0 empty empty empty 17 7 0 10 -262144 -1
-1;
#X obj 91 101 del 15;
#X floatatom 130 82 5 0 0 0 - - -, f 5;
#X obj 113 123 bng 15 250 50 0 empty empty empty 17 7 0 10 -262144
-1 -1;
#X obj 131 121 del 15;
#X floatatom 170 102 5 0 0 0 - - -, f 5;
#X obj 153 143 bng 15 250 50 0 empty empty empty 17 7 0 10 -262144
-1 -1;
#X obj 171 141 del 15;
#X floatatom 210 122 5 0 0 0 - - -, f 5;
#X obj 193 163 bng 15 250 50 0 empty empty empty 17 7 0 10 -262144
-1 -1;
#X obj 211 161 del 15;
#X floatatom 250 142 5 0 0 0 - - -, f 5;
#X obj 233 183 bng 15 250 50 0 empty empty empty 17 7 0 10 -262144
-1 -1;
#X obj 251 181 del 15;
#X floatatom 290 162 5 0 0 0 - - -, f 5;
#X obj 273 203 bng 15 250 50 0 empty empty empty 17 7 0 10 -262144
-1 -1;
#X obj 291 201 del 15;
#X floatatom 330 182 5 0 0 0 - - -, f 5;
#X obj 313 223 bng 15 250 50 0 empty empty empty 17 7 0 10 -262144
-1 -1;
#X obj 331 221 del 15;
#X floatatom 370 202 5 0 0 0 - - -, f 5;
#X obj 353 243 bng 15 250 50 0 empty empty empty 17 7 0 10 -262144
-1 -1;
#X obj 371 241 del 15;
#X floatatom 410 222 5 0 0 0 - - -, f 5;
#X obj 393 263 bng 15 250 50 0 empty empty empty 17 7 0 10 -262144
-1 -1;
#X obj 411 261 del 15;
#X floatatom 450 242 5 0 0 0 - - -, f 5;
#X obj 433 283 bng 15 250 50 0 empty empty empty 17 7 0 10 -262144
-1 -1;
#X obj 451 281 del 15;
#X floatatom 490 262 5 0 0 0 - - -, f 5;
#X obj 473 303 bng 15 250 50 0 empty empty empty 17 7 0 10 -262144
-1 -1;
#X obj 491 301 del 15;
#X floatatom 530 282 5 0 0 0 - - -, f 5;
#X obj 513 323 bng 15 250 50 0 empty empty empty 17 7 0 10 -262144
-1 -1;
#X obj 531 321 del 15;
#X floatatom 570 302 5 0 0 0 - - -, f 5;
#X obj 553 343 bng 15 250 50 0 empty empty empty 17 7 0 10 -262144
-1 -1;
#X obj 571 341 del 15;
#X floatatom 610 322 5 0 0 0 - - -, f 5;
#X obj 593 363 bng 15 250 50 0 empty empty empty 17 7 0 10 -262144
-1 -1;
#X obj 611 361 del 15;
#X floatatom 650 342 5 0 0 0 - - -, f 5;
#X obj 633 383 bng 15 250 50 0 empty empty empty 17 7 0 10 -262144
-1 -1;
#X obj 651 381 del 15;
#X floatatom 690 362 5 0 0 0 - - -, f 5;
#X obj 41 408 outlet;
#X obj 873 523 outlet;
#X obj 130 60 * 0.82;
#X obj 170 80 * 0.87;
#X obj 210 100 * 0.93;
#X obj 250 120 * 0.75;
#X obj 290 140 * 0.95;
#X obj 330 160 * 0.97;
#X obj 370 180 * 0.87;
#X obj 410 200 * 0.96;
#X obj 450 220 * 0.89;
#X obj 490 240 * 0.95;
#X obj 530 260 * 0.95;
#X obj 570 280 * 0.92;
#X obj 610 300 * 0.93;
#X obj 651 320 * 1.04;
#X obj 690 340 * 0.94;
#X obj 673 403 bng 15 250 50 0 empty empty empty 17 7 0 10 -262144
-1 -1;
#X obj 691 401 del 15;
#X floatatom 730 382 5 0 0 0 - - -, f 5;
#X obj 713 423 bng 15 250 50 0 empty empty empty 17 7 0 10 -262144
-1 -1;
#X obj 731 421 del 15;
#X floatatom 770 402 5 0 0 0 - - -, f 5;
#X obj 753 443 bng 15 250 50 0 empty empty empty 17 7 0 10 -262144
-1 -1;
#X obj 771 441 del 15;
#X floatatom 810 422 5 0 0 0 - - -, f 5;
#X obj 793 463 bng 15 250 50 0 empty empty empty 17 7 0 10 -262144
-1 -1;
#X obj 811 461 del 15;
#X floatatom 850 442 5 0 0 0 - - -, f 5;
#X obj 833 483 bng 15 250 50 0 empty empty empty 17 7 0 10 -262144
-1 -1;
#X obj 851 481 del 15;
#X floatatom 890 462 5 0 0 0 - - -, f 5;
#X obj 873 503 bng 15 250 50 0 empty empty empty 17 7 0 10 -262144
-1 -1;
#X obj 891 501 del 15;
#X floatatom 930 482 5 0 0 0 - - -, f 5;
#X obj 730 360 * 0.97;
#X obj 770 380 * 0.92;
#X obj 810 400 * 0.99;
#X obj 850 420 * 0.88;
#X obj 891 440 * 0.88;
#X obj 930 460 * 0.96;
#X connect 0 0 4 0;
#X connect 1 0 52 0;
#X connect 4 0 6 0;
#X connect 4 0 50 0;
#X connect 5 0 50 0;
#X connect 6 0 5 0;
#X connect 6 0 9 0;
#X connect 7 0 6 1;
#X connect 7 0 53 0;
#X connect 8 0 50 0;
#X connect 9 0 8 0;
#X connect 9 0 12 0;
#X connect 10 0 9 1;
#X connect 10 0 54 0;
#X connect 11 0 50 0;
#X connect 12 0 11 0;
#X connect 12 0 15 0;
#X connect 13 0 12 1;
#X connect 13 0 55 0;
#X connect 14 0 50 0;
#X connect 15 0 14 0;
#X connect 15 0 18 0;
#X connect 16 0 15 1;
#X connect 16 0 56 0;
#X connect 17 0 50 0;
#X connect 18 0 17 0;
#X connect 18 0 21 0;
#X connect 19 0 18 1;
#X connect 19 0 57 0;
#X connect 20 0 50 0;
#X connect 21 0 20 0;
#X connect 21 0 24 0;
#X connect 22 0 21 1;
#X connect 22 0 58 0;
#X connect 23 0 50 0;
#X connect 24 0 23 0;
#X connect 24 0 27 0;
#X connect 25 0 24 1;
#X connect 25 0 59 0;
#X connect 26 0 50 0;
#X connect 27 0 26 0;
#X connect 27 0 30 0;
#X connect 28 0 27 1;
#X connect 28 0 60 0;
#X connect 29 0 50 0;
#X connect 30 0 29 0;
#X connect 30 0 33 0;
#X connect 31 0 30 1;
#X connect 31 0 61 0;
#X connect 32 0 50 0;
#X connect 33 0 32 0;
#X connect 33 0 36 0;
#X connect 34 0 33 1;
#X connect 34 0 62 0;
#X connect 35 0 50 0;
#X connect 36 0 35 0;
#X connect 36 0 39 0;
#X connect 37 0 36 1;
#X connect 37 0 63 0;
#X connect 38 0 50 0;
#X connect 39 0 38 0;
#X connect 39 0 42 0;
#X connect 40 0 39 1;
#X connect 40 0 64 0;
#X connect 41 0 50 0;
#X connect 42 0 41 0;
#X connect 42 0 45 0;
#X connect 43 0 42 1;
#X connect 43 0 65 0;
#X connect 44 0 50 0;
#X connect 45 0 44 0;
#X connect 45 0 48 0;
#X connect 46 0 45 1;
#X connect 46 0 66 0;
#X connect 47 0 50 0;
#X connect 48 0 47 0;
#X connect 48 0 68 0;
#X connect 49 0 48 1;
#X connect 49 0 85 0;
#X connect 52 0 7 0;
#X connect 53 0 10 0;
#X connect 54 0 13 0;
#X connect 55 0 16 0;
#X connect 56 0 19 0;
#X connect 57 0 22 0;
#X connect 58 0 25 0;
#X connect 59 0 28 0;
#X connect 60 0 31 0;
#X connect 61 0 34 0;
#X connect 62 0 37 0;
#X connect 63 0 40 0;
#X connect 64 0 43 0;
#X connect 65 0 46 0;
#X connect 66 0 49 0;
#X connect 67 0 50 0;
#X connect 68 0 67 0;
#X connect 68 0 71 0;
#X connect 69 0 68 1;
#X connect 69 0 86 0;
#X connect 70 0 50 0;
#X connect 71 0 70 0;
#X connect 71 0 74 0;
#X connect 72 0 71 1;
#X connect 72 0 87 0;
#X connect 73 0 50 0;
#X connect 74 0 73 0;
#X connect 74 0 77 0;
#X connect 75 0 74 1;
#X connect 75 0 88 0;
#X connect 76 0 50 0;
#X connect 77 0 76 0;
#X connect 77 0 80 0;
#X connect 78 0 77 1;
#X connect 78 0 89 0;
#X connect 79 0 50 0;
#X connect 80 0 79 0;
#X connect 80 0 83 0;
#X connect 81 0 80 1;
#X connect 81 0 90 0;
#X connect 82 0 51 0;
#X connect 82 0 50 0;
#X connect 83 0 82 0;
#X connect 84 0 83 1;
#X connect 85 0 69 0;
#X connect 86 0 72 0;
#X connect 87 0 75 0;
#X connect 88 0 78 0;
#X connect 89 0 81 0;
#X connect 90 0 84 0;
#X restore 109 283 pd kakkoKatarai;
#N canvas 104 104 818 465 kakkoSei 0;
#X obj 41 32 inlet;
#X text 36 6 first bang;
#X obj 41 56 bng 15 250 50 0 empty empty empty 17 7 0 10 -262144 -1
-1;
#X obj 83 113 bng 15 250 50 0 empty empty empty 17 7 0 10 -262144 -1
-1;
#X obj 123 133 bng 15 250 50 0 empty empty empty 17 7 0 10 -262144
-1 -1;
#X obj 163 153 bng 15 250 50 0 empty empty empty 17 7 0 10 -262144
-1 -1;
#X obj 203 173 bng 15 250 50 0 empty empty empty 17 7 0 10 -262144
-1 -1;
#X obj 243 193 bng 15 250 50 0 empty empty empty 17 7 0 10 -262144
-1 -1;
#X obj 41 248 outlet;
#X obj 243 248 outlet;
#X obj 101 111 del 94;
#X obj 141 131 del 81;
#X obj 181 151 del 84;
#X obj 221 171 del 89;
#X obj 261 191 del 89;
#X connect 0 0 2 0;
#X connect 2 0 8 0;
#X connect 2 0 10 0;
#X connect 3 0 8 0;
#X connect 4 0 8 0;
#X connect 5 0 8 0;
#X connect 6 0 8 0;
#X connect 7 0 8 0;
#X connect 7 0 9 0;
#X connect 10 0 3 0;
#X connect 10 0 11 0;
#X connect 11 0 4 0;
#X connect 11 0 12 0;
#X connect 12 0 5 0;
#X connect 12 0 13 0;
#X connect 13 0 6 0;
#X connect 13 0 14 0;
#X connect 14 0 7 0;
#X restore 229 293 pd kakkoSei;
#N canvas 271 344 450 262 shokoChichin 0;
#X obj 31 27 inlet;
#X obj 31 62 bng 15 250 50 0 empty empty empty 17 7 0 10 -262144 -1
-1;
#X obj 51 84 bng 15 250 50 0 empty empty empty 17 7 0 10 -262144 -1
-1;
#X obj 51 62 del 100;
#X obj 31 128 outlet;
#X connect 0 0 1 0;
#X connect 1 0 3 0;
#X connect 1 0 4 0;
#X connect 2 0 4 0;
#X connect 3 0 2 0;
#X restore 429 286 pd shokoChichin;
#N canvas 998 124 680 573 shokoTone 0;
#X obj 30 33 inlet~;
#X obj 30 355 outlet~;
#X obj 30 196 *~ 0.029641;
#X obj 117 196 *~ 0.163198;
#X obj 205 196 *~ 0.034336;
#X obj 293 196 *~ 0.017672;
#X obj 380 196 *~ 0.015414;
#X obj 104 33 vsl 15 128 0 0.1 0 0 empty empty empty 0 -9 0 10 -262144
-1 -1 4003 1;
#X floatatom 104 174 7 0 0 0 - - -, f 7;
#X obj 191 33 vsl 15 128 0 0.1 0 0 empty empty empty 0 -9 0 10 -262144
-1 -1 6280 1;
#X floatatom 191 174 7 0 0 0 - - -, f 7;
#X obj 279 33 vsl 15 128 0 0.1 0 0 empty empty empty 0 -9 0 10 -262144
-1 -1 2221 1;
#X floatatom 279 174 7 0 0 0 - - -, f 7;
#X obj 367 33 vsl 15 128 0 0.1 0 0 empty empty empty 0 -9 0 10 -262144
-1 -1 380 1;
#X floatatom 367 174 7 0 0 0 - - -, f 7;
#X obj 454 33 vsl 15 128 0 0.1 0 0 empty empty empty 0 -9 0 10 -262144
-1 -1 1604 1;
#X floatatom 454 174 7 0 0 0 - - -, f 7;
#X obj 146 397 loadbang;
#X msg 287 462 0.01263;
#X msg 278 442 0.00299;
#X msg 267 422 0.01749;
#X msg 257 402 0.04945;
#X msg 247 382 0.03152;
#X text 346 329 extraido de batente de madeira;
#X obj 30 243 bp~ 4000.51 630;
#X obj 117 270 bp~ 4221.69 300;
#X obj 204 243 bp~ 5332.18 620;
#X obj 292 270 bp~ 7607.16 390;
#X obj 381 243 bp~ 8255.07 570;
#X connect 0 0 2 0;
#X connect 0 0 3 0;
#X connect 0 0 4 0;
#X connect 0 0 5 0;
#X connect 0 0 6 0;
#X connect 2 0 24 0;
#X connect 3 0 25 0;
#X connect 4 0 26 0;
#X connect 5 0 27 0;
#X connect 6 0 28 0;
#X connect 7 0 8 0;
#X connect 8 0 2 1;
#X connect 9 0 10 0;
#X connect 10 0 3 1;
#X connect 11 0 12 0;
#X connect 12 0 4 1;
#X connect 13 0 14 0;
#X connect 14 0 5 1;
#X connect 15 0 16 0;
#X connect 16 0 6 1;
#X connect 17 0 22 0;
#X connect 17 0 21 0;
#X connect 17 0 20 0;
#X connect 17 0 19 0;
#X connect 17 0 18 0;
#X connect 18 0 15 0;
#X connect 19 0 13 0;
#X connect 20 0 11 0;
#X connect 21 0 9 0;
#X connect 22 0 7 0;
#X connect 24 0 1 0;
#X connect 25 0 1 0;
#X connect 26 0 1 0;
#X connect 27 0 1 0;
#X connect 28 0 1 0;
#X restore 369 367 pd shokoTone;
#N canvas 976 229 680 594 taikoTone 0;
#X obj 30 33 inlet~;
#X obj 30 355 outlet~;
#X obj 30 196 *~ 0.029641;
#X obj 117 196 *~ 0.163198;
#X obj 205 196 *~ 0.034336;
#X obj 293 196 *~ 0.017672;
#X obj 380 196 *~ 0.015414;
#X obj 104 33 vsl 15 128 0 1 0 0 empty empty empty 0 -9 0 10 -262144
-1 -1 9346 1;
#X floatatom 104 174 7 0 0 0 - - -, f 7;
#X obj 191 33 vsl 15 128 0 0.001 0 0 empty empty empty 0 -9 0 10 -262144
-1 -1 4064 1;
#X floatatom 191 174 7 0 0 0 - - -, f 7;
#X obj 279 33 vsl 15 128 0 0.001 0 0 empty empty empty 0 -9 0 10 -262144
-1 -1 4445 1;
#X floatatom 279 174 7 0 0 0 - - -, f 7;
#X obj 367 33 vsl 15 128 0 0.001 0 0 empty empty empty 0 -9 0 10 -262144
-1 -1 5461 1;
#X floatatom 367 174 7 0 0 0 - - -, f 7;
#X obj 454 33 vsl 15 128 0 0.001 0 0 empty empty empty 0 -9 0 10 -262144
-1 -1 5461 1;
#X floatatom 454 174 7 0 0 0 - - -, f 7;
#X obj 146 397 loadbang;
#X obj 30 243 bp~ 115.618 278;
#X obj 117 270 bp~ 118.153 246;
#X obj 204 243 bp~ 183.595 233;
#X obj 292 270 bp~ 259.001 177;
#X obj 381 243 bp~ 355.189 92;
#X obj 467 196 *~ 0.017672;
#X obj 541 33 vsl 15 128 0 0.001 0 0 empty empty empty 0 -9 0 10 -262144
-1 -1 9398 1;
#X floatatom 541 174 7 0 0 0 - - -, f 7;
#X obj 466 270 bp~ 454.85 58;
#X msg 247 382 0.73591;
#X msg 257 402 0.00032;
#X msg 267 422 0.00035;
#X msg 278 442 0.00043;
#X msg 287 462 0.00043;
#X msg 297 482 0.00074;
#X text 436 336 extraido de DOU;
#X connect 0 0 2 0;
#X connect 0 0 3 0;
#X connect 0 0 4 0;
#X connect 0 0 5 0;
#X connect 0 0 6 0;
#X connect 2 0 18 0;
#X connect 3 0 19 0;
#X connect 4 0 20 0;
#X connect 5 0 21 0;
#X connect 6 0 22 0;
#X connect 7 0 8 0;
#X connect 8 0 2 1;
#X connect 9 0 10 0;
#X connect 10 0 3 1;
#X connect 11 0 12 0;
#X connect 12 0 4 1;
#X connect 13 0 14 0;
#X connect 14 0 5 1;
#X connect 15 0 16 0;
#X connect 16 0 6 1;
#X connect 17 0 27 0;
#X connect 17 0 28 0;
#X connect 17 0 29 0;
#X connect 17 0 30 0;
#X connect 17 0 31 0;
#X connect 17 0 32 0;
#X connect 18 0 1 0;
#X connect 19 0 1 0;
#X connect 20 0 1 0;
#X connect 21 0 1 0;
#X connect 22 0 1 0;
#X connect 23 0 26 0;
#X connect 24 0 25 0;
#X connect 25 0 23 1;
#X connect 26 0 1 0;
#X connect 27 0 7 0;
#X connect 28 0 9 0;
#X connect 29 0 11 0;
#X connect 30 0 13 0;
#X connect 31 0 15 0;
#X connect 32 0 24 0;
#X restore 619 367 pd taikoTone;
#N canvas 650 192 428 462 beatAD 0;
#X obj 58 285 *~;
#X obj 76 257 vline~;
#X text 126 256 adsr;
#X obj 76 77 bng 15 250 50 0 empty empty empty 17 7 0 10 -262144 -1
-1;
#X msg 76 232 0 0 \, \$1 1 0 \, 0 \$2 1;
#X obj 76 142 * 0.01;
#X floatatom 76 187 5 0 0 0 - - -, f 5;
#X obj 156 142 * 0.01;
#X floatatom 156 187 5 0 0 0 - - -, f 5;
#X obj 76 97 t b b;
#X obj 76 209 pack f f;
#X obj 156 119 random 1000;
#X obj 58 36 inlet~;
#X obj 58 327 outlet~;
#X obj 134 36 inlet;
#X text 17 15 sound source;
#X obj 76 120 random 60;
#X obj 76 165 + 0.399;
#X obj 156 165 + 2;
#X connect 0 0 13 0;
#X connect 1 0 0 1;
#X connect 3 0 9 0;
#X connect 4 0 1 0;
#X connect 5 0 17 0;
#X connect 6 0 10 0;
#X connect 7 0 18 0;
#X connect 8 0 10 1;
#X connect 9 0 16 0;
#X connect 9 1 11 0;
#X connect 10 0 4 0;
#X connect 11 0 7 0;
#X connect 12 0 0 0;
#X connect 14 0 3 0;
#X connect 16 0 5 0;
#X connect 17 0 6 0;
#X connect 18 0 8 0;
#X restore 49 337 pd beatAD;
#X obj 49 310 noise~;
#X obj 109 238 bng 15 250 50 0 empty empty empty 17 7 0 10 -262144
-1 -1;
#X obj 109 310 bng 15 250 50 0 PercSB1 empty empty 17 7 0 10 -262144
-1 -1;
#N canvas 340 210 450 431 beatAD 0;
#X obj 58 285 *~;
#X obj 76 257 vline~;
#X text 126 256 adsr;
#X obj 76 77 bng 15 250 50 0 empty empty empty 17 7 0 10 -262144 -1
-1;
#X msg 76 232 0 0 \, \$1 1 0 \, 0 \$2 1;
#X obj 76 142 * 0.01;
#X floatatom 76 187 5 0 0 0 - - -, f 5;
#X obj 156 142 * 0.01;
#X floatatom 156 187 5 0 0 0 - - -, f 5;
#X obj 156 165 + 1;
#X obj 76 97 t b b;
#X obj 76 209 pack f f;
#X obj 76 120 random 100;
#X obj 156 119 random 1000;
#X obj 76 165 + 0.1;
#X obj 58 36 inlet~;
#X obj 58 327 outlet~;
#X obj 134 36 inlet;
#X text 17 15 sound source;
#X connect 0 0 16 0;
#X connect 1 0 0 1;
#X connect 3 0 10 0;
#X connect 4 0 1 0;
#X connect 5 0 14 0;
#X connect 6 0 11 0;
#X connect 7 0 9 0;
#X connect 8 0 11 1;
#X connect 9 0 8 0;
#X connect 10 0 12 0;
#X connect 10 1 13 0;
#X connect 11 0 4 0;
#X connect 12 0 5 0;
#X connect 13 0 7 0;
#X connect 14 0 6 0;
#X connect 15 0 0 0;
#X connect 17 0 3 0;
#X restore 369 340 pd beatAD;
#X obj 369 313 noise~;
#X obj 429 261 bng 15 250 50 0 empty empty empty 17 7 0 10 -262144
-1 -1;
#X obj 429 313 bng 15 250 50 0 PercSB2 empty empty 17 7 0 10 -262144
-1 -1;
#N canvas 340 210 450 431 beatAD 0;
#X obj 58 285 *~;
#X obj 76 257 vline~;
#X text 126 256 adsr;
#X obj 76 77 bng 15 250 50 0 empty empty empty 17 7 0 10 -262144 -1
-1;
#X msg 76 232 0 0 \, \$1 1 0 \, 0 \$2 1;
#X obj 76 142 * 0.01;
#X floatatom 76 187 5 0 0 0 - - -, f 5;
#X obj 156 142 * 0.01;
#X floatatom 156 187 5 0 0 0 - - -, f 5;
#X obj 156 165 + 1;
#X obj 76 97 t b b;
#X obj 76 209 pack f f;
#X obj 58 36 inlet~;
#X obj 58 327 outlet~;
#X obj 134 36 inlet;
#X text 17 15 sound source;
#X obj 156 119 random 1500;
#X obj 76 120 random 40;
#X obj 76 165 + 0.595;
#X connect 0 0 13 0;
#X connect 1 0 0 1;
#X connect 3 0 10 0;
#X connect 4 0 1 0;
#X connect 5 0 18 0;
#X connect 6 0 11 0;
#X connect 7 0 9 0;
#X connect 8 0 11 1;
#X connect 9 0 8 0;
#X connect 10 0 17 0;
#X connect 10 1 16 0;
#X connect 11 0 4 0;
#X connect 12 0 0 0;
#X connect 14 0 3 0;
#X connect 16 0 7 0;
#X connect 17 0 5 0;
#X connect 18 0 6 0;
#X restore 619 340 pd beatAD;
#X obj 619 313 noise~;
#X obj 679 313 bng 15 250 50 0 PercSB3 empty empty 17 7 0 10 -262144
-1 -1;
#X obj 49 451 outlet~;
#X obj 369 454 outlet~;
#X obj 619 454 outlet~;
#X obj 229 238 bng 15 250 50 0 empty empty empty 17 7 0 10 -262144
-1 -1;
#X obj 109 41 inlet;
#X obj 229 41 inlet;
#X obj 429 41 inlet;
#X obj 679 41 inlet;
#X text 81 15 kakkoKatarai;
#X text 221 15 kakkoSei;
#X text 382 15 shokoChichin;
#X obj 479 41 inlet;
#X text 472 15 shokoChin;
#X text 680 15 taiko;
#X obj 749 41 inlet;
#X text 740 15 time in;
#X obj 42 84 bng 15 250 50 0 empty PercSB1 empty 17 7 0 10 -262144
-155802 -1;
#X obj 92 84 bng 15 250 50 0 empty PercSB2 empty 17 7 0 10 -262144
-155802 -1;
#X obj 142 84 bng 15 250 50 0 empty PercSB3 empty 17 7 0 10 -262144
-155802 -1;
#X text 38 64 kakko shoko taiko;
#X obj 49 426 *~;
#X floatatom 84 412 5 0 0 0 - - -, f 5;
#X obj 369 426 *~;
#X floatatom 404 412 5 0 0 0 - - -, f 5;
#X obj 619 426 *~;
#X floatatom 654 412 5 0 0 0 - - -, f 5;
#X obj 147 373 loadbang;
#X obj 467 373 loadbang;
#X obj 717 373 loadbang;
#X obj 700 313 del 110;
#X obj 700 291 bng 15 250 50 0 empty empty empty 17 7 0 10 -262144
-1 -1;
#X obj 749 63 s timeIn;
#X obj 211 259 r timeIn;
#X obj 109 132 aProbability;
#X obj 316 62 loadbang;
#X msg 316 84 64;
#X obj 613 133 aProbability;
#X msg 276 84 32;
#X msg 84 390 500;
#X msg 654 390 1400;
#X msg 404 390 700;
#X connect 0 0 37 0;
#X connect 1 0 9 0;
#X connect 2 0 9 0;
#X connect 3 0 13 0;
#X connect 4 0 39 0;
#X connect 5 0 41 0;
#X connect 6 0 0 0;
#X connect 7 0 6 0;
#X connect 8 0 1 0;
#X connect 9 0 6 1;
#X connect 10 0 4 0;
#X connect 11 0 10 0;
#X connect 12 0 3 0;
#X connect 13 0 10 1;
#X connect 14 0 5 0;
#X connect 15 0 14 0;
#X connect 16 0 14 1;
#X connect 20 0 2 0;
#X connect 21 0 50 1;
#X connect 22 0 20 0;
#X connect 23 0 12 0;
#X connect 24 0 53 1;
#X connect 28 0 13 0;
#X connect 31 0 48 0;
#X connect 37 0 17 0;
#X connect 38 0 37 1;
#X connect 39 0 18 0;
#X connect 40 0 39 1;
#X connect 41 0 19 0;
#X connect 42 0 41 1;
#X connect 43 0 55 0;
#X connect 44 0 57 0;
#X connect 45 0 56 0;
#X connect 46 0 16 0;
#X connect 47 0 46 0;
#X connect 49 0 1 1;
#X connect 50 0 8 0;
#X connect 50 1 20 0;
#X connect 51 0 52 0;
#X connect 51 0 54 0;
#X connect 52 0 53 0;
#X connect 53 0 16 0;
#X connect 53 1 47 0;
#X connect 54 0 50 0;
#X connect 55 0 38 0;
#X connect 56 0 42 0;
#X connect 57 0 40 0;
#X coords 0 -1 1 1 126 40 2 36 63;
#X restore 443 355 pd percussoes;
#X obj 411 11 bng 15 250 50 0 empty empty empty 17 7 0 10 -262144 -1
-1;
#N canvas 409 235 392 300 phasorSynth 0;
#X obj 23 17 inlet;
#X obj 23 45 unpack f f f f f f;
#X floatatom 23 139 5 0 0 0 - - -, f 5;
#X floatatom 81 139 5 0 0 0 - - -, f 5;
#X floatatom 135 139 5 0 0 0 - - -, f 5;
#X floatatom 192 139 5 0 0 0 - - -, f 5;
#X floatatom 249 139 5 0 0 0 - - -, f 5;
#X floatatom 303 139 5 0 0 0 - - -, f 5;
#X obj 24 204 *~ 0.16;
#X obj 80 204 *~ 0.16;
#X obj 136 204 *~ 0.16;
#X obj 192 204 *~ 0.16;
#X obj 248 204 *~ 0.16;
#X obj 304 204 *~ 0.16;
#X obj 163 270 outlet~;
#X obj 23 159 phasor~;
#X obj 81 159 phasor~;
#X obj 135 159 phasor~;
#X obj 192 159 phasor~;
#X obj 249 159 phasor~;
#X obj 303 159 phasor~;
#X connect 0 0 1 0;
#X connect 1 0 2 0;
#X connect 1 1 3 0;
#X connect 1 2 4 0;
#X connect 1 3 5 0;
#X connect 1 4 6 0;
#X connect 1 5 7 0;
#X connect 2 0 15 0;
#X connect 3 0 16 0;
#X connect 4 0 17 0;
#X connect 5 0 18 0;
#X connect 6 0 19 0;
#X connect 7 0 20 0;
#X connect 8 0 14 0;
#X connect 9 0 14 0;
#X connect 10 0 14 0;
#X connect 11 0 14 0;
#X connect 12 0 14 0;
#X connect 13 0 14 0;
#X connect 15 0 8 0;
#X connect 16 0 9 0;
#X connect 17 0 10 0;
#X connect 18 0 11 0;
#X connect 19 0 12 0;
#X connect 20 0 13 0;
#X coords 0 300 1 299 200 180 0;
#X restore 116 328 pd phasorSynth;
#N canvas 587 351 392 300 oscSynth 0;
#X obj 23 17 inlet;
#X obj 23 45 unpack f f f f f f;
#X floatatom 23 139 5 0 0 0 - - -, f 5;
#X floatatom 81 139 5 0 0 0 - - -, f 5;
#X floatatom 135 139 5 0 0 0 - - -, f 5;
#X floatatom 192 139 5 0 0 0 - - -, f 5;
#X floatatom 249 139 5 0 0 0 - - -, f 5;
#X floatatom 303 139 5 0 0 0 - - -, f 5;
#X obj 24 204 *~ 0.16;
#X obj 80 204 *~ 0.16;
#X obj 136 204 *~ 0.16;
#X obj 192 204 *~ 0.16;
#X obj 248 204 *~ 0.16;
#X obj 304 204 *~ 0.16;
#X obj 163 270 outlet~;
#X obj 23 159 osc~;
#X obj 81 159 osc~;
#X obj 135 159 osc~;
#X obj 192 159 osc~;
#X obj 249 159 osc~;
#X obj 303 159 osc~;
#X connect 0 0 1 0;
#X connect 1 0 2 0;
#X connect 1 1 3 0;
#X connect 1 2 4 0;
#X connect 1 3 5 0;
#X connect 1 4 6 0;
#X connect 1 5 7 0;
#X connect 2 0 15 0;
#X connect 3 0 16 0;
#X connect 4 0 17 0;
#X connect 5 0 18 0;
#X connect 6 0 19 0;
#X connect 7 0 20 0;
#X connect 8 0 14 0;
#X connect 9 0 14 0;
#X connect 10 0 14 0;
#X connect 11 0 14 0;
#X connect 12 0 14 0;
#X connect 13 0 14 0;
#X connect 15 0 8 0;
#X connect 16 0 9 0;
#X connect 17 0 10 0;
#X connect 18 0 11 0;
#X connect 19 0 12 0;
#X connect 20 0 13 0;
#X coords 0 300 1 299 200 180 0;
#X restore 35 328 pd oscSynth;
#X obj 116 366 *~;
#N canvas 660 57 547 461 chord-selection 0;
#X obj 26 33 inlet;
#X text 18 10 melody note in;
#X obj 26 56 sel 0;
#X obj 58 78 + 12;
#X floatatom 58 100 5 0 0 0 - - -, f 5;
#X obj 26 78 bng 15 250 50 0 empty empty empty 17 7 0 10 -262144 -1
-1;
#X obj 25 152 bng 15 250 50 0 empty empty empty 17 7 0 10 -262144 -1
-1;
#X obj 75 152 bng 15 250 50 0 empty empty empty 17 7 0 10 -262144 -1
-1;
#X obj 125 152 bng 15 250 50 0 empty empty empty 17 7 0 10 -262144
-1 -1;
#X obj 175 152 bng 15 250 50 0 empty empty empty 17 7 0 10 -262144
-1 -1;
#X obj 225 152 bng 15 250 50 0 empty empty empty 17 7 0 10 -262144
-1 -1;
#X obj 275 152 bng 15 250 50 0 empty empty empty 17 7 0 10 -262144
-1 -1;
#X obj 325 152 bng 15 250 50 0 empty empty empty 17 7 0 10 -262144
-1 -1;
#X obj 375 152 bng 15 250 50 0 empty empty empty 17 7 0 10 -262144
-1 -1;
#X obj 25 130 sel 69;
#X obj 75 130 sel 71;
#X obj 125 130 sel 74;
#X obj 175 130 sel 76;
#X obj 225 130 sel 77;
#X obj 275 130 sel 78;
#X obj 325 130 sel 79;
#X obj 375 130 sel 80;
#X text 9 180 kotsu;
#X text 69 190 ichi;
#X text 119 180 bou;
#X text 169 190 otsu;
#X text 259 200 juu2 \, ge;
#X text 325 190 juu1;
#X text 372 180 bi;
#X obj 25 312 outlet;
#X msg 25 222 5;
#X msg 75 232 7;
#X msg 125 222 9;
#X msg 175 232 4;
#X msg 275 322 2;
#X msg 407 322 3;
#X msg 326 232 1;
#X msg 375 222 6;
#X text 195 99 kuu \, gyou \, hi;
#X floatatom 225 216 5 0 0 0 - - -, f 5;
#X obj 225 194 + 1;
#X obj 225 172 random 3;
#X obj 125 295 sel 1;
#X obj 175 295 sel 2;
#X obj 225 295 sel 3;
#X msg 125 317 5;
#X msg 175 317 8;
#X msg 225 317 11;
#X obj 275 259 aProbability;
#X connect 0 0 2 0;
#X connect 2 0 5 0;
#X connect 2 1 3 0;
#X connect 3 0 4 0;
#X connect 4 0 14 0;
#X connect 4 0 15 0;
#X connect 4 0 16 0;
#X connect 4 0 17 0;
#X connect 4 0 18 0;
#X connect 4 0 19 0;
#X connect 4 0 20 0;
#X connect 4 0 21 0;
#X connect 6 0 30 0;
#X connect 7 0 31 0;
#X connect 8 0 32 0;
#X connect 9 0 33 0;
#X connect 10 0 41 0;
#X connect 11 0 48 0;
#X connect 12 0 36 0;
#X connect 13 0 37 0;
#X connect 14 0 6 0;
#X connect 15 0 7 0;
#X connect 16 0 8 0;
#X connect 17 0 9 0;
#X connect 18 0 10 0;
#X connect 19 0 11 0;
#X connect 20 0 12 0;
#X connect 21 0 13 0;
#X connect 30 0 29 0;
#X connect 31 0 29 0;
#X connect 32 0 29 0;
#X connect 33 0 29 0;
#X connect 34 0 29 0;
#X connect 35 0 29 0;
#X connect 36 0 29 0;
#X connect 37 0 29 0;
#X connect 39 0 42 0;
#X connect 39 0 43 0;
#X connect 39 0 44 0;
#X connect 40 0 39 0;
#X connect 41 0 40 0;
#X connect 42 0 45 0;
#X connect 43 0 46 0;
#X connect 44 0 47 0;
#X connect 45 0 29 0;
#X connect 46 0 29 0;
#X connect 47 0 29 0;
#X connect 48 0 34 0;
#X connect 48 1 35 0;
#X restore 353 58 pd chord-selection;
#N canvas 378 239 661 377 melody-counter 0;
#X floatatom 35 65 5 0 0 0 - - -, f 5;
#X obj 35 43 counter 0 27;
#X obj 35 84 t f f f;
#X obj 35 106 tabread hyoujou-melody;
#X obj 81 128 tabread hyoujou-divisi;
#X obj 45 193 bng 15 250 50 0 empty empty empty 17 7 0 10 -262144 -1
-1;
#X floatatom 35 168 5 0 0 0 - - -, f 5;
#X obj 125 180 *;
#X floatatom 125 202 7 0 0 0 - - -, f 7;
#X obj 125 155 t b f;
#X floatatom 81 155 5 0 0 0 - - -, f 5;
#X obj 35 11 inlet;
#X obj 80 11 inlet;
#X obj 35 261 outlet;
#X obj 125 221 outlet;
#X floatatom 255 123 5 0 0 0 - - -, f 5;
#X obj 255 101 tabread hyoujou-veloci;
#X obj 125 11 inlet;
#X text 172 10 metro \, counter reset \, timer in;
#X connect 0 0 2 0;
#X connect 1 0 0 0;
#X connect 2 0 3 0;
#X connect 2 1 16 0;
#X connect 2 2 4 0;
#X connect 3 0 6 0;
#X connect 4 0 10 0;
#X connect 6 0 5 0;
#X connect 6 0 13 0;
#X connect 7 0 8 0;
#X connect 8 0 14 0;
#X connect 9 0 7 0;
#X connect 9 1 7 1;
#X connect 10 0 7 0;
#X connect 11 0 1 0;
#X connect 12 0 1 2;
#X connect 16 0 15 0;
#X connect 17 0 9 0;
#X restore 353 31 pd melody-counter;
#X obj 718 181 *~;
#X obj 35 248 random 11;
#X obj 35 270 + 1;
#X floatatom 35 292 5 0 0 0 - - -, f 5;
#X obj 701 111 random 6;
#X obj 755 682 osc~ 0.01;
#X floatatom 755 663 5 0 0 0 - - -, f 5;
#X floatatom 107 248 7 0 0 0 - - -, f 7;
#X obj 107 267 * 2;
#X floatatom 107 289 7 0 0 0 - - -, f 7;
#X obj 107 226 r masterTempo;
#X obj 892 133 r masterTempo;
#N canvas 210 205 508 554 scaleNoteSelect 0;
#X obj 22 36 inlet;
#X obj 22 408 outlet;
#X floatatom 22 61 5 0 0 0 - - -, f 5;
#X obj 106 119 tabread ritsu;
#X obj 204 119 tabread yo;
#X obj 281 119 tabread in;
#X obj 22 119 tabread ryo;
#X floatatom 22 141 5 0 0 0 - - -, f 5;
#X floatatom 106 141 5 0 0 0 - - -, f 5;
#X floatatom 204 141 5 0 0 0 - - -, f 5;
#X floatatom 281 141 5 0 0 0 - - -, f 5;
#X floatatom 22 382 5 0 0 0 - - -, f 5;
#X floatatom 402 180 5 0 0 0 - - -, f 5;
#X obj 402 134 random 4;
#X obj 402 158 + 1;
#X obj 61 194 sel 1;
#X obj 145 194 sel 2;
#X obj 243 194 sel 3;
#X obj 320 194 sel 4;
#X obj 320 224 bng 15 250 50 0 empty empty empty 17 7 0 10 -262144
-1 -1;
#X floatatom 320 266 5 0 0 0 - - -, f 5;
#X msg 320 244 1;
#X obj 352 224 bng 15 250 50 0 empty empty empty 17 7 0 10 -262144
-1 -1;
#X msg 352 244 0;
#X obj 281 288 spigot;
#X floatatom 281 310 5 0 0 0 - - -, f 5;
#X obj 243 224 bng 15 250 50 0 empty empty empty 17 7 0 10 -262144
-1 -1;
#X floatatom 243 266 5 0 0 0 - - -, f 5;
#X msg 243 244 1;
#X obj 275 224 bng 15 250 50 0 empty empty empty 17 7 0 10 -262144
-1 -1;
#X msg 275 244 0;
#X obj 204 288 spigot;
#X floatatom 204 310 5 0 0 0 - - -, f 5;
#X obj 145 224 bng 15 250 50 0 empty empty empty 17 7 0 10 -262144
-1 -1;
#X floatatom 145 266 5 0 0 0 - - -, f 5;
#X msg 145 244 1;
#X obj 177 224 bng 15 250 50 0 empty empty empty 17 7 0 10 -262144
-1 -1;
#X msg 177 244 0;
#X obj 106 288 spigot;
#X floatatom 106 310 5 0 0 0 - - -, f 5;
#X obj 61 224 bng 15 250 50 0 empty empty empty 17 7 0 10 -262144 -1
-1;
#X floatatom 61 266 5 0 0 0 - - -, f 5;
#X msg 61 244 1;
#X obj 93 224 bng 15 250 50 0 empty empty empty 17 7 0 10 -262144 -1
-1;
#X msg 93 244 0;
#X obj 22 288 spigot;
#X floatatom 22 310 5 0 0 0 - - -, f 5;
#X obj 402 36 inlet;
#X text 20 12 number for scale note;
#X obj 402 78 bng 15 250 50 0 empty empty empty 17 7 0 10 -262144 -1
-1;
#X text 262 12 number for scale decision;
#X connect 0 0 2 0;
#X connect 2 0 6 0;
#X connect 2 0 3 0;
#X connect 2 0 4 0;
#X connect 2 0 5 0;
#X connect 3 0 8 0;
#X connect 4 0 9 0;
#X connect 5 0 10 0;
#X connect 6 0 7 0;
#X connect 7 0 45 0;
#X connect 8 0 38 0;
#X connect 9 0 31 0;
#X connect 10 0 24 0;
#X connect 11 0 1 0;
#X connect 12 0 15 0;
#X connect 12 0 16 0;
#X connect 12 0 17 0;
#X connect 12 0 18 0;
#X connect 13 0 14 0;
#X connect 14 0 12 0;
#X connect 15 0 40 0;
#X connect 15 1 43 0;
#X connect 16 0 33 0;
#X connect 16 1 36 0;
#X connect 17 0 26 0;
#X connect 17 1 29 0;
#X connect 18 0 19 0;
#X connect 18 1 22 0;
#X connect 19 0 21 0;
#X connect 20 0 24 1;
#X connect 21 0 20 0;
#X connect 22 0 23 0;
#X connect 23 0 20 0;
#X connect 24 0 25 0;
#X connect 25 0 11 0;
#X connect 26 0 28 0;
#X connect 27 0 31 1;
#X connect 28 0 27 0;
#X connect 29 0 30 0;
#X connect 30 0 27 0;
#X connect 31 0 32 0;
#X connect 32 0 11 0;
#X connect 33 0 35 0;
#X connect 34 0 38 1;
#X connect 35 0 34 0;
#X connect 36 0 37 0;
#X connect 37 0 34 0;
#X connect 38 0 39 0;
#X connect 39 0 11 0;
#X connect 40 0 42 0;
#X connect 41 0 45 1;
#X connect 42 0 41 0;
#X connect 43 0 44 0;
#X connect 44 0 41 0;
#X connect 45 0 46 0;
#X connect 46 0 11 0;
#X connect 47 0 49 0;
#X connect 49 0 13 0;
#X restore 701 141 pd scaleNoteSelect;
#X obj 824 110 random 4;
#X obj 824 90 bng 15 250 50 0 empty empty empty 17 7 0 10 -262144 -1
-1;
#N canvas 183 104 450 300 scaleSynth 0;
#X obj 50 117 osc~;
#X obj 49 50 mtof~;
#X obj 90 117 osc~;
#X obj 50 149 *~;
#X obj 150 117 osc~;
#X obj 149 92 *~ 0.5;
#X obj 89 92 *~ 0.33;
#X obj 203 117 osc~;
#X obj 202 92 *~ 4;
#X obj 49 17 inlet;
#X obj 50 181 outlet~;
#X connect 0 0 3 0;
#X connect 1 0 0 0;
#X connect 1 0 5 0;
#X connect 1 0 6 0;
#X connect 1 0 8 0;
#X connect 2 0 3 1;
#X connect 3 0 10 0;
#X connect 4 0 3 1;
#X connect 5 0 4 0;
#X connect 6 0 2 0;
#X connect 7 0 3 1;
#X connect 8 0 7 0;
#X connect 9 0 1 0;
#X restore 701 158 pd scaleSynth;
#X obj 35 129 s d1;
#X obj 62 150 s d2;
#X obj 89 129 s d3;
#X obj 116 150 s d4;
#X obj 143 129 s d5;
#X obj 170 150 s d6;
#X obj 197 129 s d7;
#X obj 224 150 s d8;
#X obj 701 91 bng 15 250 50 0 empty empty empty 17 7 0 10 -262144 -1
-1;
#X obj 35 226 r d2;
#X obj 534 143 r d7;
#X obj 636 677 freeverb~;
#X obj 445 728 freeverb~;
#X obj 34 447 freeverb~;
#X obj 35 404 *~ 0.75;
#X obj 95 404 *~ 0.75;
#X obj 444 655 *~ 0.75;
#X obj 444 676 *~ 0.75;
#X obj 444 697 *~ 0.75;
#X obj 636 654 *~ 0.75;
#N canvas 757 121 543 300 gagaku-tables 0;
#X obj 270 24 table ryo;
#X obj 270 51 table ritsu;
#X obj 270 78 table yo;
#X obj 270 105 table in;
#X msg 34 51 \; ryo 0 60 62 64 66 67 69 71 \; ritsu 0 60 62 63 65 67
69 70 \; yo 0 60 62 63 65 67 68 70 \; in 0 60 61 63 65 67 68 70;
#X msg 34 130 \; hyoujou-melody 0 62 64 59 0 59 57 59 64 64 62 64 0
64 62 64 64 66 67 68 65 67 64 0 64 62 64 0 64 \; hyoujou-divisi 0 0.5
0.5 0.125 0.125 0.25 0.25 0.25 0.5 0.25 0.25 0.125 0.125 0.75 0.5 0.25
0.25 0.375 0.125 0.25 0.125 0.125 0.25 0.25 0.25 0.25 0.125 0.125 0.75
\; hyoujou-veloci 0 1 1 1 0 1 1 1 1 1 1 1 0 1 1 1 1 1 1 1 1 1 1 0 1
1 1 0 1;
#X obj 360 24 table hyoujou-melody;
#X obj 360 51 table hyoujou-divisi;
#X obj 360 78 table hyoujou-veloci;
#X obj 34 24 loadbang;
#X connect 9 0 4 0;
#X connect 9 0 5 0;
#X restore 232 58 pd gagaku-tables;
#X obj 892 155 * 3;
#X floatatom 892 177 7 0 0 0 - - -, f 7;
#X obj 824 38 r d5;
#X obj 596 165 r d7;
#X obj 1073 691 freeverb~;
#X obj 1073 658 *~ 0.75;
#X obj 1022 106 random 6;
#X obj 1022 86 bng 15 250 50 0 empty empty empty 17 7 0 10 -262144
-1 -1;
#N canvas 648 167 842 673 scaleSelect 0;
#X obj 222 571 outlet;
#X text 548 261 number for scale decision;
#X obj 22 19 inlet;
#X obj 22 42 bng 15 250 50 0 empty empty empty 17 7 0 10 -262144 -1
-1;
#X obj 40 60 bng 15 250 50 0 empty empty empty 17 7 0 10 -262144 -1
-1;
#X obj 58 58 del 15;
#X obj 58 80 bng 15 250 50 0 empty empty empty 17 7 0 10 -262144 -1
-1;
#X obj 76 78 del 15;
#X obj 76 100 bng 15 250 50 0 empty empty empty 17 7 0 10 -262144 -1
-1;
#X obj 94 98 del 15;
#X obj 94 120 bng 15 250 50 0 empty empty empty 17 7 0 10 -262144 -1
-1;
#X obj 112 118 del 15;
#X obj 112 140 bng 15 250 50 0 empty empty empty 17 7 0 10 -262144
-1 -1;
#X obj 130 138 del 15;
#X obj 130 160 bng 15 250 50 0 empty empty empty 17 7 0 10 -262144
-1 -1;
#X obj 148 158 del 15;
#X msg 22 228 60;
#X msg 32 248 62;
#X msg 42 268 64;
#X msg 52 288 66;
#X msg 62 308 67;
#X msg 72 328 69;
#X msg 82 348 71;
#X obj 22 383 pack f f f f f f f;
#X msg 162 228 60;
#X msg 172 248 62;
#X obj 162 383 pack f f f f f f f;
#X msg 182 268 63;
#X msg 192 288 65;
#X msg 202 308 67;
#X msg 212 328 69;
#X msg 222 348 71;
#X text 127 401 ryo;
#X text 253 401 ritsu;
#X msg 302 228 60;
#X msg 312 248 62;
#X obj 302 383 pack f f f f f f f;
#X msg 322 268 63;
#X msg 332 288 65;
#X msg 342 308 67;
#X msg 352 328 68;
#X msg 362 348 70;
#X text 414 401 yo;
#X msg 442 228 60;
#X obj 442 383 pack f f f f f f f;
#X msg 462 268 63;
#X msg 472 288 65;
#X msg 482 308 67;
#X msg 492 328 68;
#X msg 502 348 70;
#X msg 452 248 61;
#X text 554 401 in;
#X floatatom 602 430 5 0 0 0 - - -, f 5;
#X obj 602 384 random 4;
#X obj 602 408 + 1;
#X obj 261 444 sel 1;
#X obj 345 444 sel 2;
#X obj 443 444 sel 3;
#X obj 520 444 sel 4;
#X obj 520 474 bng 15 250 50 0 empty empty empty 17 7 0 10 -262144
-1 -1;
#X floatatom 520 516 5 0 0 0 - - -, f 5;
#X msg 520 494 1;
#X obj 552 474 bng 15 250 50 0 empty empty empty 17 7 0 10 -262144
-1 -1;
#X msg 552 494 0;
#X obj 481 538 spigot;
#X obj 443 474 bng 15 250 50 0 empty empty empty 17 7 0 10 -262144
-1 -1;
#X floatatom 443 516 5 0 0 0 - - -, f 5;
#X msg 443 494 1;
#X obj 475 474 bng 15 250 50 0 empty empty empty 17 7 0 10 -262144
-1 -1;
#X msg 475 494 0;
#X obj 404 538 spigot;
#X obj 345 474 bng 15 250 50 0 empty empty empty 17 7 0 10 -262144
-1 -1;
#X floatatom 345 516 5 0 0 0 - - -, f 5;
#X msg 345 494 1;
#X obj 377 474 bng 15 250 50 0 empty empty empty 17 7 0 10 -262144
-1 -1;
#X msg 377 494 0;
#X obj 306 538 spigot;
#X obj 261 474 bng 15 250 50 0 empty empty empty 17 7 0 10 -262144
-1 -1;
#X floatatom 261 516 5 0 0 0 - - -, f 5;
#X msg 261 494 1;
#X obj 293 474 bng 15 250 50 0 empty empty empty 17 7 0 10 -262144
-1 -1;
#X msg 293 494 0;
#X obj 222 538 spigot;
#X obj 602 286 inlet;
#X obj 602 328 bng 15 250 50 0 empty empty empty 17 7 0 10 -262144
-1 -1;
#X connect 2 0 3 0;
#X connect 3 0 5 0;
#X connect 3 0 16 0;
#X connect 3 0 24 0;
#X connect 3 0 34 0;
#X connect 3 0 43 0;
#X connect 4 0 17 0;
#X connect 4 0 25 0;
#X connect 4 0 35 0;
#X connect 4 0 50 0;
#X connect 5 0 4 0;
#X connect 5 0 7 0;
#X connect 6 0 18 0;
#X connect 6 0 27 0;
#X connect 6 0 37 0;
#X connect 6 0 45 0;
#X connect 7 0 6 0;
#X connect 7 0 9 0;
#X connect 8 0 19 0;
#X connect 8 0 28 0;
#X connect 8 0 38 0;
#X connect 8 0 46 0;
#X connect 9 0 8 0;
#X connect 9 0 11 0;
#X connect 10 0 20 0;
#X connect 10 0 29 0;
#X connect 10 0 39 0;
#X connect 10 0 47 0;
#X connect 11 0 10 0;
#X connect 11 0 13 0;
#X connect 12 0 21 0;
#X connect 12 0 30 0;
#X connect 12 0 40 0;
#X connect 12 0 48 0;
#X connect 13 0 12 0;
#X connect 13 0 15 0;
#X connect 14 0 22 0;
#X connect 14 0 31 0;
#X connect 14 0 41 0;
#X connect 14 0 49 0;
#X connect 15 0 14 0;
#X connect 16 0 23 0;
#X connect 17 0 23 1;
#X connect 18 0 23 2;
#X connect 19 0 23 3;
#X connect 20 0 23 4;
#X connect 21 0 23 5;
#X connect 22 0 23 6;
#X connect 23 0 82 0;
#X connect 24 0 26 0;
#X connect 25 0 26 1;
#X connect 26 0 76 0;
#X connect 27 0 26 2;
#X connect 28 0 26 3;
#X connect 29 0 26 4;
#X connect 30 0 26 5;
#X connect 31 0 26 6;
#X connect 34 0 36 0;
#X connect 35 0 36 1;
#X connect 36 0 70 0;
#X connect 37 0 36 2;
#X connect 38 0 36 3;
#X connect 39 0 36 4;
#X connect 40 0 36 5;
#X connect 41 0 36 6;
#X connect 43 0 44 0;
#X connect 44 0 64 0;
#X connect 45 0 44 2;
#X connect 46 0 44 3;
#X connect 47 0 44 4;
#X connect 48 0 44 5;
#X connect 49 0 44 6;
#X connect 50 0 44 1;
#X connect 52 0 55 0;
#X connect 52 0 56 0;
#X connect 52 0 57 0;
#X connect 52 0 58 0;
#X connect 53 0 54 0;
#X connect 54 0 52 0;
#X connect 55 0 77 0;
#X connect 55 1 80 0;
#X connect 56 0 71 0;
#X connect 56 1 74 0;
#X connect 57 0 65 0;
#X connect 57 1 68 0;
#X connect 58 0 59 0;
#X connect 58 1 62 0;
#X connect 59 0 61 0;
#X connect 60 0 64 1;
#X connect 61 0 60 0;
#X connect 62 0 63 0;
#X connect 63 0 60 0;
#X connect 64 0 0 0;
#X connect 65 0 67 0;
#X connect 66 0 70 1;
#X connect 67 0 66 0;
#X connect 68 0 69 0;
#X connect 69 0 66 0;
#X connect 70 0 0 0;
#X connect 71 0 73 0;
#X connect 72 0 76 1;
#X connect 73 0 72 0;
#X connect 74 0 75 0;
#X connect 75 0 72 0;
#X connect 76 0 0 0;
#X connect 77 0 79 0;
#X connect 78 0 82 1;
#X connect 79 0 78 0;
#X connect 80 0 81 0;
#X connect 81 0 78 0;
#X connect 82 0 0 0;
#X connect 83 0 84 0;
#X connect 84 0 53 0;
#X restore 1022 127 pd scaleSelect;
#X obj 445 788 throw~ L;
#X obj 505 788 throw~ R;
#X obj 34 507 throw~ L;
#X obj 94 507 throw~ R;
#X obj 1073 742 throw~ L;
#X obj 1133 742 throw~ R;
#X obj 637 732 throw~ L;
#X obj 703 732 throw~ R;
#X obj 558 165 r d3;
#X obj 1138 175 *~;
#X obj 940 681 osc~ 0.01;
#X floatatom 940 662 5 0 0 0 - - -, f 5;
#X obj 1220 44 r masterTempo;
#N canvas 893 387 508 554 scaleNoteSelect 0;
#X obj 22 408 outlet;
#X floatatom 22 382 5 0 0 0 - - -, f 5;
#X floatatom 402 180 5 0 0 0 - - -, f 5;
#X obj 402 134 random 4;
#X obj 402 158 + 1;
#X obj 61 194 sel 1;
#X obj 145 194 sel 2;
#X obj 243 194 sel 3;
#X obj 320 194 sel 4;
#X obj 320 224 bng 15 250 50 0 empty empty empty 17 7 0 10 -262144
-1 -1;
#X floatatom 320 266 5 0 0 0 - - -, f 5;
#X msg 320 244 1;
#X obj 352 224 bng 15 250 50 0 empty empty empty 17 7 0 10 -262144
-1 -1;
#X msg 352 244 0;
#X obj 281 288 spigot;
#X floatatom 281 310 5 0 0 0 - - -, f 5;
#X obj 243 224 bng 15 250 50 0 empty empty empty 17 7 0 10 -262144
-1 -1;
#X floatatom 243 266 5 0 0 0 - - -, f 5;
#X msg 243 244 1;
#X obj 275 224 bng 15 250 50 0 empty empty empty 17 7 0 10 -262144
-1 -1;
#X msg 275 244 0;
#X obj 204 288 spigot;
#X floatatom 204 310 5 0 0 0 - - -, f 5;
#X obj 145 224 bng 15 250 50 0 empty empty empty 17 7 0 10 -262144
-1 -1;
#X floatatom 145 266 5 0 0 0 - - -, f 5;
#X msg 145 244 1;
#X obj 177 224 bng 15 250 50 0 empty empty empty 17 7 0 10 -262144
-1 -1;
#X msg 177 244 0;
#X obj 106 288 spigot;
#X floatatom 106 310 5 0 0 0 - - -, f 5;
#X obj 61 224 bng 15 250 50 0 empty empty empty 17 7 0 10 -262144 -1
-1;
#X floatatom 61 266 5 0 0 0 - - -, f 5;
#X msg 61 244 1;
#X obj 93 224 bng 15 250 50 0 empty empty empty 17 7 0 10 -262144 -1
-1;
#X msg 93 244 0;
#X obj 22 288 spigot;
#X floatatom 22 310 5 0 0 0 - - -, f 5;
#X obj 402 36 inlet;
#X obj 402 78 bng 15 250 50 0 empty empty empty 17 7 0 10 -262144 -1
-1;
#X text 262 12 number for scale decision;
#X obj 22 26 inlet;
#X floatatom 22 48 5 0 0 0 - - -, f 5;
#X obj 22 87 - 12;
#X obj 69 55 t b f;
#X obj 116 93 hsl 128 15 0 24 0 0 empty empty empty -2 -8 0 10 -262144
-1 -1 6400 1;
#X floatatom 249 94 7 0 0 0 - - -, f 7;
#X text 21 7 note in;
#X text 113 67 note relation;
#X obj 268 43 loadbang;
#X msg 268 65 12;
#X connect 1 0 0 0;
#X connect 2 0 5 0;
#X connect 2 0 6 0;
#X connect 2 0 7 0;
#X connect 2 0 8 0;
#X connect 3 0 4 0;
#X connect 4 0 2 0;
#X connect 5 0 30 0;
#X connect 5 1 33 0;
#X connect 6 0 23 0;
#X connect 6 1 26 0;
#X connect 7 0 16 0;
#X connect 7 1 19 0;
#X connect 8 0 9 0;
#X connect 8 1 12 0;
#X connect 9 0 11 0;
#X connect 10 0 14 1;
#X connect 11 0 10 0;
#X connect 12 0 13 0;
#X connect 13 0 10 0;
#X connect 14 0 15 0;
#X connect 15 0 1 0;
#X connect 16 0 18 0;
#X connect 17 0 21 1;
#X connect 18 0 17 0;
#X connect 19 0 20 0;
#X connect 20 0 17 0;
#X connect 21 0 22 0;
#X connect 22 0 1 0;
#X connect 23 0 25 0;
#X connect 24 0 28 1;
#X connect 25 0 24 0;
#X connect 26 0 27 0;
#X connect 27 0 24 0;
#X connect 28 0 29 0;
#X connect 29 0 1 0;
#X connect 30 0 32 0;
#X connect 31 0 35 1;
#X connect 32 0 31 0;
#X connect 33 0 34 0;
#X connect 34 0 31 0;
#X connect 35 0 36 0;
#X connect 36 0 1 0;
#X connect 37 0 38 0;
#X connect 38 0 3 0;
#X connect 40 0 41 0;
#X connect 41 0 42 0;
#X connect 42 0 35 0;
#X connect 42 0 28 0;
#X connect 42 0 21 0;
#X connect 42 0 14 0;
#X connect 43 0 42 0;
#X connect 43 1 42 1;
#X connect 44 0 45 0;
#X connect 45 0 43 0;
#X connect 48 0 49 0;
#X connect 49 0 44 0;
#X coords 0 -1 1 1 194 20 2 110 90;
#X restore 846 299 pd scaleNoteSelect;
#N canvas 183 104 450 300 scaleSynth 0;
#X obj 50 157 osc~;
#X obj 49 50 mtof~;
#X obj 90 157 osc~;
#X obj 50 189 *~;
#X obj 150 157 osc~;
#X obj 149 132 *~ 0.5;
#X obj 89 132 *~ 0.33;
#X obj 203 157 osc~;
#X obj 202 132 *~ 4;
#X obj 49 17 inlet;
#X obj 50 221 outlet~;
#X connect 0 0 3 0;
#X connect 1 0 0 0;
#X connect 1 0 5 0;
#X connect 1 0 6 0;
#X connect 1 0 8 0;
#X connect 2 0 3 1;
#X connect 3 0 10 0;
#X connect 4 0 3 1;
#X connect 5 0 4 0;
#X connect 6 0 2 0;
#X connect 7 0 3 1;
#X connect 8 0 7 0;
#X connect 9 0 1 0;
#X restore 1138 155 pd scaleSynth;
#X obj 847 686 freeverb~;
#X obj 847 664 *~ 0.75;
#X floatatom 1220 88 7 0 0 0 - - -, f 7;
#X obj 848 741 throw~ L;
#X obj 914 741 throw~ R;
#X obj 582 143 r masterTempo;
#X obj 443 395 aVol;
#X obj 443 417 aVol;
#X obj 443 439 aVol;
#X obj 249 439 aVol;
#X obj 637 439 aVol;
#X obj 1055 439 aVol;
#X obj 846 439 aVol;
#X obj 831 463 vsl 15 59 0 3 0 0 empty empty empty 0 -9 0 10 -262144
-1 -1 300 1;
#X obj 1040 463 vsl 15 59 0 3 0 0 empty empty empty 0 -9 0 10 -262144
-1 -1 300 1;
#X obj 443 340 bng 15 250 50 0 empty empty empty 17 7 0 10 -262144
-1 -1;
#X obj 466 340 bng 15 250 50 0 empty empty empty 17 7 0 10 -262144
-1 -1;
#X obj 490 340 bng 15 250 50 0 empty empty empty 17 7 0 10 -262144
-1 -1;
#X obj 514 340 bng 15 250 50 0 empty empty empty 17 7 0 10 -262144
-1 -1;
#X obj 538 340 bng 15 250 50 0 empty empty empty 17 7 0 10 -262144
-1 -1;
#N canvas 289 227 650 496 Karplus 0;
#N canvas 208 354 557 544 envelope 0;
#X msg 110 422 \$1 \$2 \, \$3 \$4 \$2 \, 0 \$5 \$6;
#X obj 110 444 vline~;
#X obj 110 398 pack 0 0 0 0 0 0;
#X floatatom 111 218 5 0 0 0 attack_vol - -, f 5;
#X floatatom 131 238 5 0 0 0 attack_decay - -, f 5;
#X floatatom 153 258 5 0 0 0 middle_vol - -, f 5;
#X floatatom 175 284 5 0 0 0 middle_decay - -, f 5;
#X floatatom 197 310 5 0 0 0 final_decay - -, f 5;
#X obj 219 371 +;
#X obj 219 337 t b f;
#X obj 115 127 t b b b b b;
#X obj 110 466 outlet~;
#X floatatom 83 66 5 0 0 0 - - -, f 5;
#X obj 83 85 sel 0;
#X obj 115 108 bng 15 250 50 0 empty empty empty 17 7 0 10 -262144
-1 -1;
#X obj 83 43 inlet;
#X text 60 20 note trigger;
#X obj 282 79 r attack_vol;
#X obj 282 119 r middle_vol;
#X obj 282 99 r attack_decay;
#X obj 282 139 r middle_decay;
#X obj 282 159 r final_decay;
#X connect 0 0 1 0;
#X connect 1 0 11 0;
#X connect 2 0 0 0;
#X connect 3 0 2 0;
#X connect 4 0 2 1;
#X connect 4 0 8 0;
#X connect 5 0 2 2;
#X connect 6 0 2 3;
#X connect 6 0 9 0;
#X connect 7 0 2 4;
#X connect 8 0 2 5;
#X connect 9 0 8 0;
#X connect 9 1 8 1;
#X connect 10 0 3 0;
#X connect 10 1 4 0;
#X connect 10 2 5 0;
#X connect 10 3 6 0;
#X connect 10 4 7 0;
#X connect 12 0 13 0;
#X connect 13 1 14 0;
#X connect 14 0 10 0;
#X connect 15 0 12 0;
#X connect 17 0 3 0;
#X connect 18 0 5 0;
#X connect 19 0 4 0;
#X connect 20 0 6 0;
#X connect 21 0 7 0;
#X coords 0 544 1 543 181 120 0;
#X restore 35 54 pd envelope;
#X obj 35 7 inlet;
#X obj 34 376 outlet~;
#X floatatom 425 291 7 0 0 0 - - -, f 7;
#X floatatom 425 311 7 0 0 0 - - -, f 7;
#X obj 292 290 hsl 128 15 0 1 0 0 empty empty feedback 4 8 0 10 -106726
-1 -262144 12687 1;
#X obj 292 310 hsl 128 15 0 12000 0 0 empty empty lowpass_center_freq
4 8 0 10 -106726 -1 -262144 11567 1;
#X obj 188 162 loadbang;
#X msg 244 311 8000;
#X obj 502 305 s feedback;
#X obj 34 350 *~ 0.25;
#X obj 292 154 hsl 128 15 0 1 0 0 empty empty attack_vol 4 8 0 10 -168087
-1 -262144 12700 1;
#X obj 292 173 hsl 128 15 0 0.1 0 0 empty empty attack_decay 4 8 0
10 -168087 -1 -262144 8200 1;
#X floatatom 425 155 7 0 0 0 - - -, f 7;
#X floatatom 425 174 7 0 0 0 - - -, f 7;
#X obj 292 192 hsl 128 15 0 0.5 0 0 empty empty middle_vol 4 8 0 10
-168087 -1 -262144 12700 1;
#X floatatom 425 193 7 0 0 0 - - -, f 7;
#X obj 292 211 hsl 128 15 0 0.3 0 0 empty empty middle_decay 4 8 0
10 -168087 -1 -262144 11300 1;
#X floatatom 425 212 7 0 0 0 - - -, f 7;
#X obj 292 231 hsl 128 15 0 0.6 0 0 empty empty final_decay 4 8 0 10
-168087 -1 -262144 7100 1;
#X floatatom 425 232 7 0 0 0 - - -, f 7;
#X obj 289 135 bng 15 250 50 0 empty empty empty 17 7 0 10 -262144
-1 -1;
#X obj 502 169 s attack_vol;
#X obj 502 188 s attack_decay;
#X obj 502 207 s middle_vol;
#X obj 502 226 s middle_decay;
#X obj 502 246 s final_decay;
#X floatatom 502 73 5 0 0 0 - - -, f 5;
#X obj 502 142 *;
#X obj 532 142 *;
#X obj 562 142 *;
#X obj 502 92 t b f;
#X floatatom 425 251 7 0 0 0 - - -, f 7;
#X floatatom 425 271 7 0 0 0 - - -, f 7;
#X obj 292 250 hsl 128 15 0 20000 0 0 empty empty bandpass_center_freq
4 8 0 10 -135391 -1 -262144 3204 1;
#X obj 292 270 hsl 128 15 0 10 0 0 empty empty bandpass_q 4 8 0 10
-135391 -1 -262144 9272 1;
#X obj 502 285 s bpfq;
#X obj 502 265 s bpfCF;
#X obj 502 325 s lpfCF;
#X obj 34 198 aKarplusString;
#X obj 502 51 inlet;
#X text 497 26 tempo input;
#X msg 244 251 14000;
#X msg 244 271 6;
#X msg 244 291 0.999;
#X connect 0 0 39 0;
#X connect 1 0 0 0;
#X connect 1 0 21 0;
#X connect 1 0 39 1;
#X connect 3 0 9 0;
#X connect 4 0 38 0;
#X connect 5 0 3 0;
#X connect 6 0 4 0;
#X connect 7 0 44 0;
#X connect 7 0 8 0;
#X connect 7 0 43 0;
#X connect 7 0 42 0;
#X connect 8 0 6 0;
#X connect 10 0 2 0;
#X connect 11 0 13 0;
#X connect 12 0 28 0;
#X connect 13 0 22 0;
#X connect 14 0 23 0;
#X connect 15 0 16 0;
#X connect 16 0 24 0;
#X connect 17 0 29 0;
#X connect 18 0 25 0;
#X connect 19 0 30 0;
#X connect 20 0 26 0;
#X connect 27 0 31 0;
#X connect 28 0 14 0;
#X connect 29 0 18 0;
#X connect 30 0 20 0;
#X connect 31 0 28 0;
#X connect 31 0 29 0;
#X connect 31 0 30 0;
#X connect 31 1 30 1;
#X connect 31 1 29 1;
#X connect 31 1 28 1;
#X connect 32 0 37 0;
#X connect 33 0 36 0;
#X connect 34 0 32 0;
#X connect 35 0 33 0;
#X connect 39 0 10 0;
#X connect 40 0 27 0;
#X connect 42 0 34 0;
#X connect 43 0 35 0;
#X connect 44 0 5 0;
#X coords 0 -1 1 1 194 198 2 285 130;
#X restore 1055 241 pd Karplus;
#X obj 1220 66 * 3.5;
#X obj 34 481 *~ 0.2;
#X obj 94 481 *~ 0.2;
#X obj 445 762 *~ 0.2;
#X obj 505 762 *~ 0.2;
#X obj 637 706 *~ 0.2;
#X obj 703 706 *~ 0.2;
#X obj 848 715 *~ 0.2;
#X obj 914 715 *~ 0.2;
#X obj 1073 716 *~ 0.2;
#X obj 1133 716 *~ 0.2;
#X obj 1022 64 r d2;
#X obj 701 69 r d3;
#X obj 889 33 r masterTempo;
#X obj 889 55 * 0.5;
#X obj 248 808 scope~ 130 130 256 3 128 -1 1 0 0 0 0 205 229 232 74
79 77 96 98 102 0;
#X obj 391 809 scope~ 130 130 256 3 128 -1 1 0 0 0 0 205 229 232 74
79 77 96 98 102 0;
#N canvas 614 213 524 334 freeverb-sho 0;
#X msg 258 160 wet \$1;
#X msg 328 183 dry \$1;
#X msg 48 163 roomsize \$1;
#X msg 118 132 damping \$1;
#X msg 188 176 width \$1;
#X msg 396 140 bypass \$1;
#X msg 417 183 freeze \$1;
#X msg 396 86 0;
#X msg 48 86 0.76378;
#X msg 118 86 0.42913;
#X msg 188 86 0.55905;
#X msg 258 86 0.81102;
#X msg 328 86 0.60629;
#X obj 188 28 loadbang;
#X obj 188 255 outlet;
#X obj 188 52 bng 15 250 50 0 empty empty empty 17 7 0 10 -262144 -1
-1;
#X obj 139 28 inlet;
#X connect 0 0 14 0;
#X connect 1 0 14 0;
#X connect 2 0 14 0;
#X connect 3 0 14 0;
#X connect 4 0 14 0;
#X connect 5 0 14 0;
#X connect 6 0 14 0;
#X connect 7 0 5 0;
#X connect 7 0 6 0;
#X connect 8 0 2 0;
#X connect 9 0 3 0;
#X connect 10 0 4 0;
#X connect 11 0 0 0;
#X connect 12 0 1 0;
#X connect 13 0 15 0;
#X connect 15 0 8 0;
#X connect 15 0 9 0;
#X connect 15 0 10 0;
#X connect 15 0 11 0;
#X connect 15 0 12 0;
#X connect 15 0 7 0;
#X connect 16 0 15 0;
#X restore 35 567 pd freeverb-sho;
#X obj 35 544 bng 15 250 50 0 empty empty empty 17 7 0 10 -262144 -1
-1;
#N canvas 1010 401 524 334 freeverb-perc 0;
#X msg 258 160 wet \$1;
#X msg 328 183 dry \$1;
#X msg 48 163 roomsize \$1;
#X msg 118 132 damping \$1;
#X msg 188 176 width \$1;
#X msg 396 140 bypass \$1;
#X msg 417 183 freeze \$1;
#X msg 396 86 0;
#X obj 188 28 loadbang;
#X obj 188 255 outlet;
#X obj 188 52 bng 15 250 50 0 empty empty empty 17 7 0 10 -262144 -1
-1;
#X obj 139 28 inlet;
#X msg 48 86 0.3622;
#X msg 118 86 0.66378;
#X msg 188 86 0.48031;
#X msg 258 86 0.50393;
#X msg 328 86 0.96;
#X connect 0 0 9 0;
#X connect 1 0 9 0;
#X connect 2 0 9 0;
#X connect 3 0 9 0;
#X connect 4 0 9 0;
#X connect 5 0 9 0;
#X connect 6 0 9 0;
#X connect 7 0 5 0;
#X connect 7 0 6 0;
#X connect 8 0 10 0;
#X connect 10 0 12 0;
#X connect 10 0 13 0;
#X connect 10 0 14 0;
#X connect 10 0 15 0;
#X connect 10 0 16 0;
#X connect 10 0 7 0;
#X connect 11 0 10 0;
#X connect 12 0 2 0;
#X connect 13 0 3 0;
#X connect 14 0 4 0;
#X connect 15 0 0 0;
#X connect 16 0 1 0;
#X restore 35 617 pd freeverb-perc;
#X obj 35 594 bng 15 250 50 0 empty empty empty 17 7 0 10 -262144 -1
-1;
#X obj 463 159 del;
#X obj 824 60 del;
#X obj 487 106 r masterTempo;
#X obj 487 128 * 0.2;
#X obj 480 187 del 100;
#X obj 35 644 bng 15 250 50 0 empty empty empty 17 7 0 10 -262144 -1
-1;
#N canvas 1261 509 524 334 freeverb-scale1 0;
#X msg 258 160 wet \$1;
#X msg 328 183 dry \$1;
#X msg 48 163 roomsize \$1;
#X msg 118 132 damping \$1;
#X msg 188 176 width \$1;
#X msg 396 140 bypass \$1;
#X msg 417 183 freeze \$1;
#X msg 396 86 0;
#X obj 188 28 loadbang;
#X obj 188 255 outlet;
#X obj 188 52 bng 15 250 50 0 empty empty empty 17 7 0 10 -262144 -1
-1;
#X obj 139 28 inlet;
#X msg 48 86 0.98;
#X msg 118 86 0.73968;
#X msg 188 86 0.63779;
#X msg 258 86 1;
#X msg 328 86 0.44094;
#X connect 0 0 9 0;
#X connect 1 0 9 0;
#X connect 2 0 9 0;
#X connect 3 0 9 0;
#X connect 4 0 9 0;
#X connect 5 0 9 0;
#X connect 6 0 9 0;
#X connect 7 0 5 0;
#X connect 7 0 6 0;
#X connect 8 0 10 0;
#X connect 10 0 12 0;
#X connect 10 0 13 0;
#X connect 10 0 14 0;
#X connect 10 0 15 0;
#X connect 10 0 16 0;
#X connect 10 0 7 0;
#X connect 11 0 10 0;
#X connect 12 0 2 0;
#X connect 13 0 3 0;
#X connect 14 0 4 0;
#X connect 15 0 0 0;
#X connect 16 0 1 0;
#X restore 35 667 pd freeverb-scale1;
#X obj 846 461 aSpatialStereo;
#X obj 35 694 bng 15 250 50 0 empty empty empty 17 7 0 10 -262144 -1
-1;
#N canvas 1348 584 524 334 freeverb-scale2 0;
#X msg 258 160 wet \$1;
#X msg 328 183 dry \$1;
#X msg 48 163 roomsize \$1;
#X msg 118 132 damping \$1;
#X msg 188 176 width \$1;
#X msg 396 140 bypass \$1;
#X msg 417 183 freeze \$1;
#X msg 396 86 0;
#X obj 188 28 loadbang;
#X obj 188 255 outlet;
#X obj 188 52 bng 15 250 50 0 empty empty empty 17 7 0 10 -262144 -1
-1;
#X obj 139 28 inlet;
#X msg 48 86 0.92913;
#X msg 118 86 0.81889;
#X msg 188 86 1;
#X msg 258 86 0.92126;
#X msg 328 86 0.67716;
#X connect 0 0 9 0;
#X connect 1 0 9 0;
#X connect 2 0 9 0;
#X connect 3 0 9 0;
#X connect 4 0 9 0;
#X connect 5 0 9 0;
#X connect 6 0 9 0;
#X connect 7 0 5 0;
#X connect 7 0 6 0;
#X connect 8 0 10 0;
#X connect 10 0 12 0;
#X connect 10 0 13 0;
#X connect 10 0 14 0;
#X connect 10 0 15 0;
#X connect 10 0 16 0;
#X connect 10 0 7 0;
#X connect 11 0 10 0;
#X connect 12 0 2 0;
#X connect 13 0 3 0;
#X connect 14 0 4 0;
#X connect 15 0 0 0;
#X connect 16 0 1 0;
#X restore 35 717 pd freeverb-scale2;
#X obj 637 461 aSpatialStereo;
#X obj 35 744 bng 15 250 50 0 empty empty empty 17 7 0 10 -262144 -1
-1;
#N canvas 1348 584 524 334 freeverb-scaleKarplus 0;
#X msg 258 160 wet \$1;
#X msg 328 183 dry \$1;
#X msg 48 163 roomsize \$1;
#X msg 118 132 damping \$1;
#X msg 188 176 width \$1;
#X msg 396 140 bypass \$1;
#X msg 417 183 freeze \$1;
#X msg 396 86 0;
#X obj 188 28 loadbang;
#X obj 188 255 outlet;
#X obj 188 52 bng 15 250 50 0 empty empty empty 17 7 0 10 -262144 -1
-1;
#X obj 139 28 inlet;
#X msg 188 86 1;
#X msg 48 86 1;
#X msg 118 86 1;
#X msg 258 86 1;
#X msg 328 86 1;
#X connect 0 0 9 0;
#X connect 1 0 9 0;
#X connect 2 0 9 0;
#X connect 3 0 9 0;
#X connect 4 0 9 0;
#X connect 5 0 9 0;
#X connect 6 0 9 0;
#X connect 7 0 5 0;
#X connect 7 0 6 0;
#X connect 8 0 10 0;
#X connect 10 0 13 0;
#X connect 10 0 14 0;
#X connect 10 0 12 0;
#X connect 10 0 15 0;
#X connect 10 0 16 0;
#X connect 10 0 7 0;
#X connect 11 0 10 0;
#X connect 12 0 4 0;
#X connect 13 0 2 0;
#X connect 14 0 3 0;
#X connect 15 0 0 0;
#X connect 16 0 1 0;
#X restore 35 767 pd freeverb-scaleKarplus;
#X obj 637 319 aEnvelope;
#X obj 846 319 aEnvelope;
#X obj 249 524 aFreeverbControl;
#X obj 443 524 aFreeverbControl;
#X obj 637 524 aFreeverbControl;
#X obj 847 524 aFreeverbControl;
#X obj 1056 524 aFreeverbControl;
#X obj 443 136 r d7;
#X connect 1 0 0 0;
#X connect 1 0 114 0;
#X connect 1 1 0 1;
#X connect 1 1 115 0;
#X connect 2 0 8 0;
#X connect 3 0 13 0;
#X connect 3 0 4 0;
#X connect 3 0 12 0;
#X connect 4 0 5 1;
#X connect 4 0 14 1;
#X connect 5 0 9 0;
#X connect 8 0 33 0;
#X connect 8 1 34 0;
#X connect 8 2 35 0;
#X connect 8 3 36 0;
#X connect 8 4 37 0;
#X connect 8 5 38 0;
#X connect 8 6 39 0;
#X connect 8 7 40 0;
#X connect 9 0 47 0;
#X connect 10 0 84 0;
#X connect 10 1 85 0;
#X connect 10 2 86 0;
#X connect 11 0 16 1;
#X connect 12 0 14 0;
#X connect 13 0 5 0;
#X connect 14 0 87 0;
#X connect 16 0 15 0;
#X connect 17 0 88 0;
#X connect 18 0 19 0;
#X connect 19 0 20 0;
#X connect 20 0 3 0;
#X connect 21 0 29 0;
#X connect 22 0 130 1;
#X connect 23 0 22 0;
#X connect 24 0 25 0;
#X connect 25 0 26 0;
#X connect 26 0 4 1;
#X connect 27 0 24 0;
#X connect 28 0 54 0;
#X connect 29 0 32 0;
#X connect 29 0 76 0;
#X connect 29 0 133 0;
#X connect 30 0 29 1;
#X connect 30 0 62 1;
#X connect 30 0 76 1;
#X connect 31 0 30 0;
#X connect 32 0 17 0;
#X connect 41 0 21 0;
#X connect 42 0 18 0;
#X connect 43 0 10 3;
#X connect 44 0 104 0;
#X connect 44 1 105 0;
#X connect 45 0 102 0;
#X connect 45 1 103 0;
#X connect 46 0 100 0;
#X connect 46 1 101 0;
#X connect 47 0 46 0;
#X connect 47 0 46 1;
#X connect 48 0 46 0;
#X connect 48 0 46 1;
#X connect 49 0 45 0;
#X connect 49 0 45 1;
#X connect 50 0 45 0;
#X connect 50 0 45 1;
#X connect 51 0 45 0;
#X connect 51 0 45 1;
#X connect 52 0 44 0;
#X connect 52 0 44 1;
#X connect 54 0 55 0;
#X connect 55 0 133 1;
#X connect 56 0 121 0;
#X connect 57 0 10 4;
#X connect 58 0 108 0;
#X connect 58 1 109 0;
#X connect 59 0 58 0;
#X connect 59 0 58 1;
#X connect 60 0 62 0;
#X connect 61 0 60 0;
#X connect 71 0 10 4;
#X connect 72 0 90 0;
#X connect 73 0 127 1;
#X connect 74 0 73 0;
#X connect 75 0 99 0;
#X connect 76 0 77 0;
#X connect 76 0 98 0;
#X connect 76 0 134 0;
#X connect 77 0 72 0;
#X connect 78 0 106 0;
#X connect 78 1 107 0;
#X connect 79 0 78 0;
#X connect 79 0 78 1;
#X connect 80 0 98 1;
#X connect 80 0 134 1;
#X connect 83 0 10 5;
#X connect 84 0 49 0;
#X connect 85 0 50 0;
#X connect 86 0 51 0;
#X connect 87 0 48 0;
#X connect 88 0 130 0;
#X connect 89 0 59 0;
#X connect 90 0 127 0;
#X connect 91 0 23 0;
#X connect 92 0 74 0;
#X connect 93 0 10 0;
#X connect 94 0 10 1;
#X connect 95 0 10 2;
#X connect 96 0 10 3;
#X connect 97 0 10 4;
#X connect 98 0 89 0;
#X connect 99 0 80 0;
#X connect 100 0 65 0;
#X connect 101 0 66 0;
#X connect 102 0 63 0;
#X connect 103 0 64 0;
#X connect 104 0 69 0;
#X connect 105 0 70 0;
#X connect 106 0 81 0;
#X connect 107 0 82 0;
#X connect 108 0 67 0;
#X connect 109 0 68 0;
#X connect 110 0 61 0;
#X connect 111 0 41 0;
#X connect 112 0 113 0;
#X connect 113 0 121 1;
#X connect 116 0 135 0;
#X connect 117 0 116 0;
#X connect 118 0 136 0;
#X connect 119 0 118 0;
#X connect 120 0 124 0;
#X connect 120 0 10 4;
#X connect 121 0 31 0;
#X connect 122 0 123 0;
#X connect 123 0 120 1;
#X connect 124 0 10 2;
#X connect 125 0 126 0;
#X connect 126 0 137 0;
#X connect 127 0 79 0;
#X connect 128 0 129 0;
#X connect 129 0 138 0;
#X connect 130 0 52 0;
#X connect 130 1 44 1;
#X connect 131 0 132 0;
#X connect 132 0 139 0;
#X connect 133 0 17 1;
#X connect 134 0 72 1;
#X connect 135 0 46 0;
#X connect 136 0 45 0;
#X connect 137 0 44 0;
#X connect 138 0 78 0;
#X connect 139 0 58 0;
#X connect 140 0 10 0;
#X connect 140 0 10 2;
#X connect 140 0 120 0;
#X coords 0 -1 1 1 1010 436 2 244 212;
